<svg width="750" height="384" viewBox="0 0 750 384" fill="none" xmlns="http://www.w3.org/2000/svg">
<g clip-path="url(#clip0_375_2604)">
<rect width="750" height="383.512" fill="#F1F1F1"/>
<rect width="750" height="134.814" fill="#5AA89C"/>
<path d="M178.529 52.1209C178.232 52.493 177.86 52.9767 177.413 53.5721C176.967 54.1302 176.613 54.614 176.353 55.0233C175.497 56.4744 174.362 58.1488 172.948 60.0465C171.534 61.907 169.971 63.7674 168.26 65.6279C166.548 67.4512 164.781 69.014 162.957 70.3163L157.153 65.6837C158.269 65.014 159.367 64.2326 160.446 63.3395C161.525 62.4465 162.511 61.5163 163.404 60.5488C164.334 59.5442 165.134 58.5954 165.804 57.7023C166.511 56.8093 167.05 56.0093 167.422 55.3023C166.939 55.3023 166.12 55.3023 164.967 55.3023C163.813 55.3023 162.436 55.3023 160.836 55.3023C159.236 55.3023 157.506 55.3023 155.646 55.3023C153.822 55.3023 151.999 55.3023 150.176 55.3023C148.353 55.3023 146.622 55.3023 144.985 55.3023C143.385 55.3023 141.99 55.3023 140.799 55.3023C139.646 55.3023 138.827 55.3023 138.343 55.3023C137.19 55.3023 136.092 55.3395 135.05 55.414C134.009 55.4884 132.836 55.5814 131.534 55.693V47.9349C132.613 48.0837 133.729 48.214 134.883 48.3256C136.036 48.4372 137.19 48.493 138.343 48.493C138.827 48.493 139.683 48.493 140.911 48.493C142.139 48.493 143.59 48.493 145.264 48.493C146.976 48.493 148.781 48.493 150.678 48.493C152.613 48.493 154.529 48.493 156.427 48.493C158.362 48.493 160.148 48.493 161.785 48.493C163.46 48.493 164.874 48.493 166.027 48.493C167.218 48.493 168.018 48.493 168.427 48.493C168.948 48.493 169.581 48.4744 170.325 48.4372C171.069 48.4 171.795 48.3442 172.502 48.2698C173.246 48.1954 173.785 48.1023 174.12 47.9907L178.529 52.1209ZM155.757 59.6558C155.757 62.4093 155.702 65.0698 155.59 67.6372C155.478 70.2047 155.162 72.6791 154.641 75.0605C154.157 77.4047 153.357 79.6372 152.241 81.7581C151.162 83.8791 149.655 85.8884 147.72 87.7861C145.785 89.6837 143.311 91.4326 140.297 93.0326L133.767 87.7302C134.66 87.4326 135.609 87.0419 136.613 86.5581C137.618 86.0372 138.622 85.4047 139.627 84.6605C141.413 83.4326 142.846 82.1302 143.925 80.7535C145.041 79.3767 145.897 77.8884 146.492 76.2884C147.088 74.6512 147.497 72.8837 147.72 70.9861C147.943 69.0512 148.055 66.9488 148.055 64.6791C148.055 63.8233 148.036 63.0047 147.999 62.2233C147.962 61.4047 147.85 60.5488 147.664 59.6558H155.757ZM228.438 55.1907C228.14 55.7116 227.824 56.3442 227.489 57.0884C227.154 57.7954 226.857 58.5023 226.596 59.2093C226.112 60.8465 225.424 62.7256 224.531 64.8465C223.675 66.9302 222.596 69.107 221.294 71.3767C220.029 73.6093 218.559 75.7674 216.885 77.8512C214.205 81.0512 211.08 83.9535 207.508 86.5581C203.973 89.1628 199.582 91.507 194.336 93.5907L187.75 87.6744C191.545 86.5581 194.819 85.2744 197.573 83.8233C200.326 82.3721 202.726 80.8279 204.773 79.1907C206.819 77.5163 208.643 75.7488 210.243 73.8884C211.545 72.4372 212.736 70.8 213.815 68.9767C214.894 67.1163 215.824 65.2744 216.605 63.4512C217.387 61.6279 217.908 60.0279 218.168 58.6512H199.359L201.926 52.3442C202.447 52.3442 203.247 52.3442 204.326 52.3442C205.443 52.3442 206.689 52.3442 208.066 52.3442C209.48 52.3442 210.857 52.3442 212.196 52.3442C213.573 52.3442 214.764 52.3442 215.768 52.3442C216.81 52.3442 217.517 52.3442 217.889 52.3442C218.745 52.3442 219.601 52.2884 220.457 52.1767C221.35 52.0651 222.112 51.8977 222.745 51.6744L228.438 55.1907ZM210.243 46.3721C209.573 47.3395 208.922 48.3814 208.289 49.4977C207.657 50.614 207.173 51.4698 206.838 52.0651C205.573 54.2977 204.01 56.6233 202.15 59.0419C200.326 61.4233 198.243 63.7488 195.898 66.0186C193.554 68.2512 191.061 70.2977 188.419 72.1581L182.112 67.5256C184.568 66 186.726 64.4372 188.587 62.8372C190.485 61.2372 192.122 59.6558 193.498 58.093C194.875 56.493 196.047 54.9674 197.015 53.5163C198.019 52.0279 198.875 50.707 199.582 49.5535C200.029 48.8465 200.494 47.9349 200.978 46.8186C201.461 45.6651 201.833 44.6233 202.094 43.693L210.243 46.3721ZM249.815 82.4837C249.815 81.7023 249.815 80.5861 249.815 79.1349C249.815 77.6465 249.815 75.9721 249.815 74.1116C249.815 72.214 249.815 70.2419 249.815 68.1954C249.815 66.1116 249.815 64.0837 249.815 62.1116C249.815 60.1023 249.815 58.2419 249.815 56.5302C249.815 54.8186 249.815 53.3861 249.815 52.2326C249.815 51.6372 249.796 50.9488 249.759 50.1674C249.759 49.3861 249.722 48.6047 249.647 47.8233C249.573 47.0419 249.48 46.3721 249.368 45.814H257.685C257.573 46.6698 257.461 47.7302 257.35 48.9954C257.238 50.2233 257.182 51.3023 257.182 52.2326C257.182 53.3488 257.182 54.6884 257.182 56.2512C257.182 57.7767 257.182 59.4326 257.182 61.2186C257.182 62.9674 257.182 64.7535 257.182 66.5767C257.182 68.4 257.182 70.1861 257.182 71.9349C257.182 73.6837 257.182 75.2837 257.182 76.7349C257.182 78.1861 257.182 79.4512 257.182 80.5302C257.182 81.6465 257.35 82.5581 257.685 83.2651C258.019 83.9721 258.689 84.4744 259.694 84.7721C260.736 85.0698 262.28 85.2186 264.326 85.2186C266.298 85.2186 268.271 85.1442 270.243 84.9954C272.252 84.8093 274.243 84.5861 276.215 84.3256C278.187 84.0279 280.085 83.693 281.908 83.3209L281.685 90.9116C280.159 91.1349 278.429 91.3395 276.494 91.5256C274.559 91.7116 272.55 91.8605 270.466 91.9721C268.419 92.0837 266.392 92.1395 264.382 92.1395C261.219 92.1395 258.671 91.9349 256.736 91.5256C254.801 91.1535 253.331 90.5767 252.326 89.7954C251.359 89.014 250.689 88.0093 250.317 86.7814C249.982 85.5535 249.815 84.1209 249.815 82.4837ZM284.978 57.9256C284.717 58.3349 284.401 58.8372 284.029 59.4326C283.694 59.9907 283.396 60.5116 283.136 60.9954C282.54 62.1488 281.778 63.4512 280.847 64.9023C279.954 66.3535 278.987 67.8419 277.945 69.3674C276.903 70.893 275.824 72.3442 274.708 73.7209C273.629 75.0977 272.587 76.2698 271.582 77.2372L265.443 73.6093C266.671 72.5302 267.861 71.3023 269.015 69.9256C270.205 68.5116 271.266 67.1349 272.196 65.7954C273.126 64.4186 273.852 63.2651 274.373 62.3349C273.852 62.4093 272.94 62.5954 271.638 62.893C270.373 63.1535 268.81 63.4698 266.95 63.8419C265.089 64.214 263.061 64.6233 260.866 65.0698C258.671 65.4791 256.457 65.907 254.224 66.3535C251.992 66.8 249.833 67.2465 247.75 67.693C245.666 68.1023 243.787 68.493 242.112 68.8651C240.438 69.2 239.098 69.4791 238.094 69.7023L236.754 62.3907C237.833 62.2419 239.247 62.0372 240.996 61.7767C242.745 61.4791 244.698 61.1442 246.857 60.7721C249.015 60.3628 251.266 59.9349 253.61 59.4884C255.954 59.0419 258.28 58.5954 260.587 58.1488C262.894 57.7023 265.052 57.293 267.061 56.9209C269.071 56.5116 270.819 56.1581 272.308 55.8605C273.796 55.5256 274.912 55.2651 275.657 55.0791C276.438 54.893 277.164 54.707 277.833 54.5209C278.503 54.2977 279.098 54.0558 279.619 53.7954L284.978 57.9256ZM336.438 52.0651C336.215 52.4 335.88 52.9209 335.433 53.6279C335.024 54.3349 334.708 54.9861 334.485 55.5814C333.703 57.3302 332.736 59.2837 331.582 61.4419C330.466 63.6 329.182 65.7767 327.731 67.9721C326.317 70.1302 324.81 72.1581 323.21 74.0558C321.126 76.4 318.819 78.7256 316.289 81.0326C313.796 83.3023 311.154 85.4047 308.364 87.3395C305.61 89.2372 302.782 90.8744 299.88 92.2512L294.131 86.2233C297.145 85.0698 300.066 83.6186 302.894 81.8698C305.722 80.1209 308.345 78.2233 310.764 76.1767C313.182 74.1302 315.266 72.1395 317.015 70.2047C318.243 68.7907 319.396 67.2837 320.475 65.6837C321.592 64.0837 322.578 62.5023 323.433 60.9395C324.289 59.3395 324.922 57.8698 325.331 56.5302C324.959 56.5302 324.289 56.5302 323.322 56.5302C322.354 56.5302 321.219 56.5302 319.917 56.5302C318.652 56.5302 317.312 56.5302 315.898 56.5302C314.485 56.5302 313.126 56.5302 311.824 56.5302C310.559 56.5302 309.443 56.5302 308.475 56.5302C307.508 56.5302 306.819 56.5302 306.41 56.5302C305.629 56.5302 304.81 56.5674 303.954 56.6419C303.098 56.6791 302.28 56.7349 301.498 56.8093C300.754 56.8465 300.178 56.8837 299.768 56.9209V48.9954C300.326 49.0326 301.015 49.0884 301.833 49.1628C302.652 49.2372 303.471 49.293 304.289 49.3302C305.145 49.3674 305.852 49.3861 306.41 49.3861C306.894 49.3861 307.657 49.3861 308.698 49.3861C309.74 49.3861 310.931 49.3861 312.271 49.3861C313.61 49.3861 314.987 49.3861 316.401 49.3861C317.852 49.3861 319.229 49.3861 320.531 49.3861C321.871 49.3861 323.024 49.3861 323.992 49.3861C324.959 49.3861 325.666 49.3861 326.112 49.3861C327.34 49.3861 328.457 49.3116 329.461 49.1628C330.503 49.014 331.303 48.8465 331.861 48.6605L336.438 52.0651ZM323.936 69.4233C325.387 70.5767 326.931 71.9163 328.568 73.4419C330.205 74.9674 331.824 76.5488 333.424 78.1861C335.024 79.8233 336.494 81.4047 337.833 82.9302C339.21 84.4186 340.364 85.7209 341.294 86.8372L334.931 92.3628C333.554 90.4651 331.973 88.493 330.187 86.4465C328.438 84.4 326.578 82.3721 324.605 80.3628C322.671 78.3163 320.698 76.3814 318.689 74.5581L323.936 69.4233ZM373.61 61.5535C374.95 61.5535 376.14 61.8884 377.182 62.5581C378.261 63.1907 379.117 64.0465 379.75 65.1256C380.419 66.1674 380.754 67.3581 380.754 68.6977C380.754 70 380.419 71.1907 379.75 72.2698C379.117 73.3488 378.261 74.2233 377.182 74.893C376.14 75.5256 374.95 75.8419 373.61 75.8419C372.308 75.8419 371.117 75.5256 370.038 74.893C368.959 74.2233 368.085 73.3488 367.415 72.2698C366.782 71.1907 366.466 70 366.466 68.6977C366.466 67.3581 366.782 66.1674 367.415 65.1256C368.085 64.0465 368.959 63.1907 370.038 62.5581C371.117 61.8884 372.308 61.5535 373.61 61.5535ZM433.219 61.4977H454.317V67.3581H433.219V61.4977ZM421.275 87.0047H447.508V92.8651H421.275V87.0047ZM429.982 56.2512H436.792V76.9581H429.982V56.2512ZM417.759 73.4977H451.08V94.8744H444.215V79.3581H424.289V94.8744H417.759V73.4977ZM427.694 42.4651H434.671V52.6791H427.694V42.4651ZM410.95 49.0512H455.098V55.414H410.95V49.0512ZM407.712 49.0512H414.41V63.1163C414.41 65.3861 414.317 67.8977 414.131 70.6512C413.982 73.3674 413.703 76.1767 413.294 79.0791C412.885 81.9442 412.289 84.7349 411.508 87.4512C410.764 90.1674 409.759 92.6233 408.494 94.8186C408.085 94.4465 407.508 94 406.764 93.4791C406.057 92.9954 405.331 92.5116 404.587 92.0279C403.843 91.5814 403.21 91.2465 402.689 91.0233C403.843 89.014 404.754 86.8186 405.424 84.4372C406.094 82.0558 406.578 79.6186 406.875 77.1256C407.21 74.6326 407.433 72.1954 407.545 69.814C407.657 67.3954 407.712 65.1628 407.712 63.1163V49.0512ZM482.615 49.8326H510.912V55.6372H482.615V49.8326ZM486.131 68.4744H507.619V73.8884H486.131V68.4744ZM486.131 77.5163H507.619V82.8744H486.131V77.5163ZM493.722 42.4093H499.694V94.4279H493.722V42.4093ZM504.271 59.3209H510.131V88.5116C510.131 89.7767 510.001 90.8186 509.74 91.6372C509.517 92.4558 509.015 93.1256 508.233 93.6465C507.489 94.1302 506.615 94.4279 505.61 94.5395C504.643 94.6884 503.471 94.7628 502.094 94.7628C502.019 93.9442 501.815 92.9768 501.48 91.8605C501.182 90.7814 500.847 89.8512 500.475 89.0698C501.145 89.107 501.778 89.1256 502.373 89.1256C503.005 89.1256 503.415 89.107 503.601 89.0698C504.047 89.0698 504.271 88.8465 504.271 88.4V59.3209ZM483.619 59.3209H507.564V64.9581H489.424V94.707H483.619V59.3209ZM500.419 45.4791L504.326 42.5209C505.405 43.1907 506.54 43.9907 507.731 44.9209C508.922 45.814 509.852 46.6512 510.522 47.4326L506.447 50.7256C505.852 49.9442 504.978 49.0698 503.824 48.1023C502.671 47.0977 501.536 46.2233 500.419 45.4791ZM461.796 76.0651H481.331V93.7023H475.247V81.4791H467.601V94.8186H461.796V76.0651ZM468.438 54.4651H474.522V70.2047H468.438V54.4651ZM462.187 59.2093H480.94V64.2884H462.187V59.2093ZM460.345 68.1395H482.168V73.5535H460.345V68.1395ZM463.973 86.4465H478.54V91.9163H463.973V86.4465ZM467.712 42.4651H471.34V43.7488H473.294V45.5349C472.178 47.5814 470.745 49.907 468.996 52.5116C467.247 55.1163 465.033 57.6465 462.354 60.1023C462.019 59.6558 461.591 59.1535 461.071 58.5954C460.587 58 460.066 57.4419 459.508 56.9209C458.987 56.4 458.503 55.9907 458.057 55.693C460.364 53.7209 462.317 51.5628 463.917 49.2186C465.554 46.8372 466.819 44.5861 467.712 42.4651ZM468.885 42.4651H473.405C474.559 43.4326 475.75 44.5116 476.978 45.7023C478.205 46.893 479.34 48.0837 480.382 49.2744C481.461 50.4651 482.336 51.5628 483.005 52.5674L478.819 57.7023C478.261 56.6977 477.48 55.5442 476.475 54.2419C475.508 52.9023 474.447 51.6 473.294 50.3349C472.14 49.0326 471.024 47.9349 469.945 47.0419H468.885V42.4651ZM542.392 86.5581H561.592V92.4186H542.392V86.5581ZM539.266 71.1535H564.885V94.5954H558.41V77.014H545.405V94.8186H539.266V71.1535ZM537.257 45.0884H562.819V51.2279H537.257V45.0884ZM559.75 45.0884H566.001C566.001 45.0884 565.982 45.4047 565.945 46.0372C565.945 46.6326 565.926 47.1349 565.889 47.5442C565.778 51.414 565.647 54.5954 565.498 57.0884C565.35 59.5442 565.145 61.4605 564.885 62.8372C564.624 64.214 564.252 65.2 563.768 65.7954C563.21 66.5023 562.596 67.0233 561.926 67.3581C561.294 67.6558 560.512 67.8605 559.582 67.9721C558.875 68.0837 557.908 68.1581 556.68 68.1954C555.452 68.1954 554.15 68.1767 552.773 68.1395C552.736 67.1721 552.531 66.1116 552.159 64.9581C551.824 63.8047 551.396 62.8 550.875 61.9442C552.029 62.0558 553.126 62.1302 554.168 62.1674C555.21 62.1674 555.992 62.1674 556.512 62.1674C556.959 62.1674 557.312 62.1488 557.573 62.1116C557.833 62.0372 558.094 61.8698 558.354 61.6093C558.615 61.2744 558.819 60.5674 558.968 59.4884C559.154 58.3721 559.303 56.7349 559.415 54.5767C559.564 52.4186 559.675 49.5721 559.75 46.0372V45.0884ZM545.294 47.6558H551.88C551.657 50 551.303 52.2512 550.819 54.4093C550.373 56.5302 549.685 58.5395 548.754 60.4372C547.861 62.2977 546.615 64.0093 545.015 65.5721C543.415 67.0977 541.387 68.4372 538.931 69.5907C538.559 68.8093 537.982 67.9349 537.201 66.9674C536.457 65.9628 535.731 65.1628 535.024 64.5674C537.108 63.6744 538.782 62.6326 540.047 61.4419C541.35 60.214 542.336 58.893 543.005 57.4791C543.712 56.0279 544.215 54.4651 544.512 52.7907C544.847 51.1163 545.108 49.4047 545.294 47.6558ZM523.192 42.5209L528.996 44.6977C528.252 46.1116 527.471 47.5814 526.652 49.107C525.833 50.6326 525.033 52.0837 524.252 53.4605C523.471 54.8372 522.726 56.0279 522.019 57.0326L517.554 55.1349C518.224 53.9814 518.912 52.6791 519.619 51.2279C520.326 49.7767 520.996 48.2884 521.629 46.7628C522.261 45.2372 522.782 43.8233 523.192 42.5209ZM529.61 49.1628L535.08 51.6186C533.74 53.7395 532.271 55.9721 530.671 58.3163C529.071 60.6233 527.471 62.8558 525.871 65.014C524.271 67.1349 522.764 68.9954 521.35 70.5954L517.443 68.4186C518.485 67.1535 519.564 65.7395 520.68 64.1767C521.796 62.5767 522.894 60.9209 523.973 59.2093C525.089 57.4605 526.131 55.7302 527.098 54.0186C528.066 52.2698 528.903 50.6512 529.61 49.1628ZM514.596 55.7488L517.833 51.1721C518.801 52.0279 519.787 52.9767 520.792 54.0186C521.833 55.0233 522.782 56.0465 523.638 57.0884C524.531 58.093 525.201 59.0047 525.647 59.8233L522.243 65.014C521.796 64.1209 521.145 63.1349 520.289 62.0558C519.471 60.9767 518.559 59.8791 517.554 58.7628C516.55 57.6465 515.564 56.6419 514.596 55.7488ZM527.992 62.4465L532.401 60.6047C533.108 61.8698 533.796 63.2279 534.466 64.6791C535.173 66.093 535.768 67.4884 536.252 68.8651C536.773 70.2047 537.126 71.414 537.312 72.493L532.568 74.614C532.382 73.5349 532.047 72.307 531.564 70.9302C531.117 69.5163 530.578 68.0651 529.945 66.5767C529.312 65.0884 528.661 63.7116 527.992 62.4465ZM514.54 67.0791C517.108 67.0047 520.178 66.893 523.75 66.7442C527.322 66.5954 530.95 66.4465 534.633 66.2977L534.578 71.6C531.117 71.8605 527.675 72.1023 524.252 72.3256C520.866 72.5488 517.815 72.7535 515.098 72.9395L514.54 67.0791ZM529.164 76.3442L533.852 74.8372C534.559 76.4372 535.229 78.1861 535.861 80.0837C536.531 81.9442 537.033 83.5814 537.368 84.9954L532.401 86.7814C532.14 85.3674 531.694 83.693 531.061 81.7581C530.429 79.7861 529.796 77.9814 529.164 76.3442ZM516.996 75.2837L522.522 76.2884C522.224 78.9674 521.778 81.6093 521.182 84.214C520.587 86.8186 519.898 89.014 519.117 90.8C518.745 90.5395 518.243 90.2419 517.61 89.907C516.978 89.6093 516.326 89.3116 515.657 89.014C515.024 88.7163 514.466 88.493 513.982 88.3442C514.801 86.6698 515.452 84.6791 515.936 82.3721C516.419 80.0279 516.773 77.6651 516.996 75.2837ZM523.247 70.0372H529.108V94.9302H523.247V70.0372ZM596.643 49.2186C595.229 51.5628 593.368 53.9442 591.061 56.3628C588.754 58.7814 586.168 61.0884 583.303 63.2837C580.475 65.4419 577.498 67.3395 574.373 68.9767C574.112 68.4186 573.74 67.8047 573.257 67.1349C572.773 66.4651 572.271 65.7954 571.75 65.1256C571.229 64.4558 570.726 63.8977 570.243 63.4512C573.554 61.8512 576.661 59.8791 579.564 57.5349C582.503 55.1907 585.108 52.6977 587.378 50.0558C589.647 47.3767 591.433 44.8093 592.736 42.3535H599.936C601.387 44.6977 603.005 46.9116 604.792 48.9954C606.615 51.0791 608.531 52.9954 610.54 54.7442C612.587 56.4558 614.726 57.9814 616.959 59.3209C619.192 60.6605 621.443 61.7767 623.712 62.6698C622.857 63.5256 622.057 64.5116 621.312 65.6279C620.568 66.707 619.898 67.7674 619.303 68.8093C616.326 67.2837 613.387 65.4605 610.485 63.3395C607.582 61.2186 604.922 58.9488 602.503 56.5302C600.122 54.0744 598.168 51.6372 596.643 49.2186ZM602.838 62.9488H609.815V94.8744H602.838V62.9488ZM583.582 63.2279H590.503V70.1488C590.503 72.1209 590.373 74.2047 590.112 76.4C589.889 78.5581 589.368 80.7349 588.55 82.9302C587.768 85.1256 586.559 87.2465 584.922 89.293C583.322 91.3395 581.145 93.2186 578.392 94.9302C577.982 94.4465 577.443 93.8884 576.773 93.2558C576.14 92.6605 575.471 92.0651 574.764 91.4698C574.057 90.9116 573.405 90.4651 572.81 90.1302C575.229 88.6791 577.164 87.1163 578.615 85.4419C580.066 83.7674 581.145 82.0558 581.852 80.307C582.559 78.5209 583.024 76.7535 583.247 75.0047C583.471 73.2558 583.582 71.5814 583.582 69.9814V63.2279Z" fill="white"/>
<path d="M104.609 211.605C104.237 212.237 103.828 213.074 103.381 214.116C102.935 215.121 102.563 215.958 102.265 216.628C101.595 218.488 100.758 220.516 99.7535 222.712C98.7488 224.87 97.6139 227.047 96.3488 229.242C95.0837 231.437 93.6883 233.54 92.1628 235.549C90.4511 237.819 88.4976 240.107 86.3023 242.414C84.1442 244.684 81.6697 246.916 78.879 249.112C76.0883 251.307 72.8883 253.409 69.279 255.419L63.0279 249.781C68.1255 247.326 72.5162 244.554 76.2 241.465C79.8837 238.34 83.1767 234.842 86.079 230.972C88.3488 228.107 90.1535 225.242 91.493 222.377C92.8697 219.474 94.0232 216.628 94.9535 213.837C95.2511 213.093 95.5116 212.237 95.7349 211.27C95.9953 210.265 96.1814 209.409 96.293 208.702L104.609 211.605ZM73.9116 217.019C75.3255 217.874 76.8139 218.842 78.3767 219.921C79.9767 220.963 81.5767 222.042 83.1767 223.158C84.8139 224.274 86.3581 225.372 87.8093 226.451C89.2976 227.53 90.6372 228.516 91.8279 229.409C94.8046 231.754 97.7069 234.191 100.535 236.721C103.363 239.251 105.912 241.726 108.181 244.144L102.433 250.507C99.9767 247.679 97.4837 245.074 94.9535 242.693C92.4232 240.274 89.6883 237.837 86.7488 235.381C85.7442 234.526 84.5907 233.595 83.2883 232.591C81.986 231.586 80.5721 230.526 79.0465 229.409C77.5581 228.293 75.9767 227.177 74.3023 226.06C72.6279 224.907 70.9162 223.791 69.1674 222.712L73.9116 217.019ZM125.149 211.605C125.967 211.642 126.823 211.698 127.716 211.772C128.609 211.847 129.577 211.884 130.619 211.884C131.4 211.884 132.479 211.884 133.856 211.884C135.233 211.884 136.795 211.884 138.544 211.884C140.293 211.884 142.098 211.884 143.958 211.884C145.819 211.884 147.623 211.884 149.372 211.884C151.121 211.884 152.702 211.884 154.116 211.884C155.53 211.884 156.646 211.884 157.465 211.884C158.433 211.884 159.344 211.865 160.2 211.828C161.056 211.754 161.819 211.679 162.488 211.605V218.581C161.781 218.544 161.019 218.507 160.2 218.47C159.419 218.433 158.507 218.414 157.465 218.414C156.646 218.414 155.493 218.414 154.005 218.414C152.516 218.414 150.823 218.414 148.926 218.414C147.065 218.414 145.149 218.414 143.177 218.414C141.242 218.414 139.4 218.414 137.651 218.414C135.902 218.414 134.395 218.414 133.13 218.414C131.902 218.414 131.065 218.414 130.619 218.414C129.577 218.414 128.609 218.433 127.716 218.47C126.823 218.47 125.967 218.507 125.149 218.581V211.605ZM144.349 231.251C144.349 231.921 144.349 232.814 144.349 233.93C144.349 235.047 144.349 236.237 144.349 237.502C144.349 238.73 144.349 239.865 144.349 240.907C144.349 241.949 144.349 242.712 144.349 243.195C144.349 244.721 144.851 245.8 145.856 246.433C146.86 247.065 148.479 247.381 150.712 247.381C153.242 247.381 155.716 247.307 158.135 247.158C160.553 247.009 162.879 246.823 165.112 246.6L164.609 254.135C163.419 254.209 161.967 254.284 160.256 254.358C158.581 254.433 156.795 254.488 154.898 254.526C153 254.563 151.177 254.581 149.428 254.581C146.042 254.581 143.419 254.209 141.558 253.465C139.735 252.721 138.47 251.679 137.763 250.34C137.056 248.963 136.702 247.326 136.702 245.428C136.702 244.535 136.702 243.437 136.702 242.135C136.702 240.833 136.702 239.474 136.702 238.06C136.702 236.647 136.702 235.326 136.702 234.098C136.702 232.87 136.702 231.847 136.702 231.028C136.702 230.581 136.702 229.874 136.702 228.907C136.702 227.94 136.702 226.842 136.702 225.614C136.702 224.349 136.702 223.121 136.702 221.93C136.702 220.74 136.702 219.679 136.702 218.749C136.702 217.781 136.702 217.13 136.702 216.795H144.349C144.349 217.13 144.349 217.819 144.349 218.86C144.349 219.902 144.349 221.112 144.349 222.488C144.349 223.828 144.349 225.149 144.349 226.451C144.349 227.754 144.349 228.851 144.349 229.744C144.349 230.637 144.349 231.14 144.349 231.251ZM121.465 227.623C122.284 227.66 123.288 227.716 124.479 227.791C125.707 227.865 126.749 227.902 127.605 227.902C128.349 227.902 129.428 227.902 130.842 227.902C132.293 227.902 133.949 227.902 135.809 227.902C137.707 227.902 139.698 227.902 141.781 227.902C143.902 227.902 145.986 227.902 148.033 227.902C150.079 227.902 151.995 227.902 153.781 227.902C155.605 227.902 157.149 227.902 158.414 227.902C159.716 227.902 160.646 227.902 161.205 227.902C161.614 227.902 162.153 227.884 162.823 227.847C163.493 227.809 164.163 227.791 164.833 227.791C165.54 227.754 166.135 227.716 166.619 227.679L166.674 234.823C165.93 234.749 165.019 234.712 163.94 234.712C162.86 234.674 162.005 234.656 161.372 234.656C160.814 234.656 159.865 234.656 158.526 234.656C157.223 234.656 155.66 234.656 153.837 234.656C152.014 234.656 150.06 234.656 147.977 234.656C145.893 234.656 143.809 234.656 141.726 234.656C139.642 234.656 137.651 234.656 135.753 234.656C133.893 234.656 132.256 234.656 130.842 234.656C129.428 234.656 128.349 234.656 127.605 234.656C126.823 234.656 125.819 234.693 124.591 234.767C123.363 234.805 122.321 234.86 121.465 234.935V227.623ZM218.47 209.316C218.433 210.098 218.377 210.954 218.302 211.884C218.265 212.777 218.246 213.781 218.246 214.898C218.246 215.865 218.246 217.037 218.246 218.414C218.246 219.791 218.246 221.167 218.246 222.544C218.246 223.884 218.246 225.019 218.246 225.949C218.246 228.926 218.098 231.53 217.8 233.763C217.54 235.995 217.13 237.949 216.572 239.623C216.014 241.298 215.326 242.786 214.507 244.088C213.726 245.354 212.814 246.563 211.772 247.716C210.544 249.056 209.13 250.265 207.53 251.344C205.93 252.386 204.312 253.26 202.674 253.967C201.074 254.712 199.586 255.307 198.209 255.754L192.349 249.614C195.14 248.981 197.651 248.107 199.884 246.991C202.153 245.837 204.126 244.367 205.8 242.581C206.767 241.502 207.549 240.423 208.144 239.344C208.74 238.265 209.186 237.074 209.484 235.772C209.819 234.433 210.042 232.926 210.153 231.251C210.302 229.577 210.377 227.66 210.377 225.502C210.377 224.535 210.377 223.381 210.377 222.042C210.377 220.702 210.377 219.381 210.377 218.079C210.377 216.777 210.377 215.716 210.377 214.898C210.377 213.781 210.34 212.777 210.265 211.884C210.228 210.954 210.153 210.098 210.042 209.316H218.47ZM192.572 209.763C192.535 210.433 192.498 211.102 192.46 211.772C192.423 212.405 192.405 213.167 192.405 214.06C192.405 214.47 192.405 215.14 192.405 216.07C192.405 217 192.405 218.098 192.405 219.363C192.405 220.591 192.405 221.893 192.405 223.27C192.405 224.609 192.405 225.912 192.405 227.177C192.405 228.442 192.405 229.595 192.405 230.637C192.405 231.642 192.405 232.405 192.405 232.926C192.405 233.633 192.423 234.451 192.46 235.381C192.498 236.312 192.535 237.112 192.572 237.781H184.479C184.516 237.26 184.572 236.516 184.646 235.549C184.721 234.581 184.758 233.688 184.758 232.87C184.758 232.349 184.758 231.586 184.758 230.581C184.758 229.577 184.758 228.442 184.758 227.177C184.758 225.874 184.758 224.554 184.758 223.214C184.758 221.837 184.758 220.535 184.758 219.307C184.758 218.079 184.758 217 184.758 216.07C184.758 215.14 184.758 214.47 184.758 214.06C184.758 213.54 184.74 212.87 184.702 212.051C184.665 211.195 184.609 210.433 184.535 209.763H192.572ZM285 214.842C284.702 215.214 284.33 215.698 283.884 216.293C283.437 216.851 283.084 217.335 282.823 217.744C281.967 219.195 280.833 220.87 279.419 222.767C278.005 224.628 276.442 226.488 274.73 228.349C273.019 230.172 271.251 231.735 269.428 233.037L263.623 228.405C264.74 227.735 265.837 226.954 266.916 226.06C267.995 225.167 268.981 224.237 269.874 223.27C270.805 222.265 271.605 221.316 272.274 220.423C272.981 219.53 273.521 218.73 273.893 218.023C273.409 218.023 272.591 218.023 271.437 218.023C270.284 218.023 268.907 218.023 267.307 218.023C265.707 218.023 263.977 218.023 262.116 218.023C260.293 218.023 258.47 218.023 256.646 218.023C254.823 218.023 253.093 218.023 251.456 218.023C249.856 218.023 248.46 218.023 247.27 218.023C246.116 218.023 245.298 218.023 244.814 218.023C243.66 218.023 242.563 218.06 241.521 218.135C240.479 218.209 239.307 218.302 238.005 218.414V210.656C239.084 210.805 240.2 210.935 241.353 211.047C242.507 211.158 243.66 211.214 244.814 211.214C245.298 211.214 246.153 211.214 247.381 211.214C248.609 211.214 250.06 211.214 251.735 211.214C253.446 211.214 255.251 211.214 257.149 211.214C259.084 211.214 261 211.214 262.898 211.214C264.833 211.214 266.619 211.214 268.256 211.214C269.93 211.214 271.344 211.214 272.498 211.214C273.688 211.214 274.488 211.214 274.898 211.214C275.419 211.214 276.051 211.195 276.795 211.158C277.54 211.121 278.265 211.065 278.972 210.991C279.716 210.916 280.256 210.823 280.591 210.712L285 214.842ZM262.228 222.377C262.228 225.13 262.172 227.791 262.06 230.358C261.949 232.926 261.633 235.4 261.112 237.781C260.628 240.126 259.828 242.358 258.712 244.479C257.633 246.6 256.126 248.609 254.191 250.507C252.256 252.405 249.781 254.154 246.767 255.754L240.237 250.451C241.13 250.154 242.079 249.763 243.084 249.279C244.088 248.758 245.093 248.126 246.098 247.381C247.884 246.154 249.316 244.851 250.395 243.474C251.512 242.098 252.367 240.609 252.963 239.009C253.558 237.372 253.967 235.605 254.191 233.707C254.414 231.772 254.526 229.67 254.526 227.4C254.526 226.544 254.507 225.726 254.47 224.944C254.433 224.126 254.321 223.27 254.135 222.377H262.228ZM317.274 251.4C317.385 250.842 317.478 250.209 317.553 249.502C317.664 248.758 317.72 248.014 317.72 247.27C317.72 246.86 317.72 246.042 317.72 244.814C317.72 243.586 317.72 242.098 317.72 240.349C317.72 238.6 317.72 236.721 317.72 234.712C317.72 232.665 317.72 230.6 317.72 228.516C317.72 226.433 317.72 224.479 317.72 222.656C317.72 220.795 317.72 219.177 317.72 217.8C317.72 216.386 317.72 215.363 317.72 214.73C317.72 213.465 317.646 212.367 317.497 211.437C317.385 210.507 317.311 210.005 317.274 209.93H325.59C325.553 210.005 325.478 210.526 325.367 211.493C325.255 212.423 325.199 213.521 325.199 214.786C325.199 215.419 325.199 216.367 325.199 217.633C325.199 218.86 325.199 220.293 325.199 221.93C325.199 223.53 325.199 225.242 325.199 227.065C325.199 228.888 325.199 230.693 325.199 232.479C325.199 234.228 325.199 235.902 325.199 237.502C325.199 239.065 325.199 240.405 325.199 241.521C325.199 242.637 325.199 243.456 325.199 243.977C326.725 243.307 328.306 242.395 329.943 241.242C331.58 240.088 333.18 238.749 334.743 237.223C336.343 235.66 337.757 233.986 338.985 232.2L343.283 238.34C341.757 240.349 339.897 242.321 337.701 244.256C335.543 246.191 333.311 247.958 331.004 249.558C328.697 251.158 326.483 252.498 324.362 253.577C323.767 253.912 323.283 254.209 322.911 254.47C322.539 254.767 322.222 255.028 321.962 255.251L317.274 251.4ZM291.432 250.563C293.887 248.851 295.897 246.786 297.46 244.367C299.022 241.949 300.176 239.567 300.92 237.223C301.329 235.995 301.627 234.488 301.813 232.702C302.036 230.879 302.204 228.944 302.315 226.898C302.427 224.814 302.483 222.767 302.483 220.758C302.52 218.712 302.539 216.833 302.539 215.121C302.539 214.005 302.483 213.056 302.371 212.274C302.297 211.456 302.185 210.693 302.036 209.986H310.241C310.204 210.06 310.148 210.377 310.074 210.935C310.036 211.456 309.98 212.088 309.906 212.833C309.869 213.54 309.85 214.284 309.85 215.065C309.85 216.702 309.832 218.619 309.794 220.814C309.757 222.972 309.683 225.186 309.571 227.456C309.46 229.726 309.292 231.884 309.069 233.93C308.846 235.94 308.548 237.651 308.176 239.065C307.32 242.228 306.036 245.167 304.325 247.884C302.65 250.563 300.622 252.963 298.241 255.084L291.432 250.563ZM362.985 245.205C362.985 244.423 362.985 243.307 362.985 241.856C362.985 240.367 362.985 238.693 362.985 236.833C362.985 234.935 362.985 232.963 362.985 230.916C362.985 228.833 362.985 226.805 362.985 224.833C362.985 222.823 362.985 220.963 362.985 219.251C362.985 217.54 362.985 216.107 362.985 214.954C362.985 214.358 362.967 213.67 362.929 212.888C362.929 212.107 362.892 211.326 362.818 210.544C362.743 209.763 362.65 209.093 362.539 208.535H370.855C370.743 209.391 370.632 210.451 370.52 211.716C370.408 212.944 370.353 214.023 370.353 214.954C370.353 216.07 370.353 217.409 370.353 218.972C370.353 220.498 370.353 222.154 370.353 223.94C370.353 225.688 370.353 227.474 370.353 229.298C370.353 231.121 370.353 232.907 370.353 234.656C370.353 236.405 370.353 238.005 370.353 239.456C370.353 240.907 370.353 242.172 370.353 243.251C370.353 244.367 370.52 245.279 370.855 245.986C371.19 246.693 371.86 247.195 372.864 247.493C373.906 247.791 375.45 247.94 377.497 247.94C379.469 247.94 381.441 247.865 383.413 247.716C385.422 247.53 387.413 247.307 389.385 247.047C391.357 246.749 393.255 246.414 395.078 246.042L394.855 253.633C393.329 253.856 391.599 254.06 389.664 254.247C387.729 254.433 385.72 254.581 383.636 254.693C381.59 254.805 379.562 254.86 377.553 254.86C374.39 254.86 371.841 254.656 369.906 254.247C367.971 253.874 366.501 253.298 365.497 252.516C364.529 251.735 363.86 250.73 363.487 249.502C363.153 248.274 362.985 246.842 362.985 245.205ZM398.148 220.647C397.887 221.056 397.571 221.558 397.199 222.154C396.864 222.712 396.567 223.233 396.306 223.716C395.711 224.87 394.948 226.172 394.018 227.623C393.125 229.074 392.157 230.563 391.115 232.088C390.074 233.614 388.994 235.065 387.878 236.442C386.799 237.819 385.757 238.991 384.753 239.958L378.613 236.33C379.841 235.251 381.032 234.023 382.185 232.647C383.376 231.233 384.436 229.856 385.367 228.516C386.297 227.14 387.022 225.986 387.543 225.056C387.022 225.13 386.111 225.316 384.808 225.614C383.543 225.874 381.98 226.191 380.12 226.563C378.26 226.935 376.232 227.344 374.036 227.791C371.841 228.2 369.627 228.628 367.394 229.074C365.162 229.521 363.004 229.967 360.92 230.414C358.836 230.823 356.957 231.214 355.283 231.586C353.608 231.921 352.269 232.2 351.264 232.423L349.925 225.112C351.004 224.963 352.418 224.758 354.167 224.498C355.915 224.2 357.869 223.865 360.027 223.493C362.185 223.084 364.436 222.656 366.78 222.209C369.125 221.763 371.45 221.316 373.757 220.87C376.064 220.423 378.222 220.014 380.232 219.642C382.241 219.233 383.99 218.879 385.478 218.581C386.967 218.247 388.083 217.986 388.827 217.8C389.608 217.614 390.334 217.428 391.004 217.242C391.674 217.019 392.269 216.777 392.79 216.516L398.148 220.647ZM418.743 210.209C419.711 210.879 420.846 211.698 422.148 212.665C423.45 213.633 424.79 214.693 426.167 215.847C427.58 216.963 428.901 218.06 430.129 219.14C431.357 220.219 432.362 221.186 433.143 222.042L427.45 227.847C426.743 227.065 425.813 226.135 424.66 225.056C423.506 223.977 422.26 222.86 420.92 221.707C419.58 220.554 418.26 219.456 416.957 218.414C415.655 217.372 414.501 216.498 413.497 215.791L418.743 210.209ZM411.767 247.381C414.669 246.972 417.404 246.395 419.971 245.651C422.539 244.907 424.92 244.051 427.115 243.084C429.311 242.116 431.32 241.112 433.143 240.07C436.306 238.172 439.208 236.014 441.85 233.595C444.492 231.177 446.799 228.665 448.771 226.06C450.743 223.419 452.306 220.851 453.46 218.358L457.813 226.228C456.399 228.721 454.65 231.214 452.567 233.707C450.52 236.2 448.194 238.581 445.59 240.851C442.985 243.084 440.176 245.093 437.162 246.879C435.264 248.033 433.218 249.13 431.022 250.172C428.827 251.177 426.501 252.07 424.046 252.851C421.627 253.67 419.097 254.302 416.455 254.749L411.767 247.381ZM487.283 226.507C488.994 227.474 490.855 228.628 492.864 229.967C494.911 231.27 496.976 232.628 499.06 234.042C501.143 235.456 503.097 236.833 504.92 238.172C506.78 239.512 508.343 240.702 509.608 241.744L504.306 248.051C503.078 246.935 501.553 245.651 499.729 244.2C497.943 242.712 496.008 241.205 493.925 239.679C491.841 238.116 489.776 236.628 487.729 235.214C485.72 233.8 483.915 232.591 482.315 231.586L487.283 226.507ZM513.515 217.019C513.18 217.54 512.846 218.154 512.511 218.86C512.176 219.567 511.897 220.274 511.674 220.981C511.115 222.693 510.353 224.609 509.385 226.73C508.455 228.814 507.339 230.954 506.036 233.149C504.734 235.307 503.246 237.428 501.571 239.512C498.929 242.786 495.748 245.893 492.027 248.833C488.343 251.772 483.822 254.265 478.464 256.312L471.99 250.674C475.897 249.484 479.283 248.07 482.148 246.433C485.013 244.795 487.487 243.047 489.571 241.186C491.692 239.326 493.534 237.465 495.097 235.605C496.362 234.154 497.553 232.535 498.669 230.749C499.822 228.926 500.808 227.121 501.627 225.335C502.483 223.512 503.078 221.893 503.413 220.479H484.548L487.115 214.116H502.967C503.86 214.116 504.734 214.06 505.59 213.949C506.483 213.837 507.227 213.688 507.822 213.502L513.515 217.019ZM495.097 208.423C494.427 209.391 493.757 210.433 493.087 211.549C492.455 212.665 491.971 213.521 491.636 214.116C490.371 216.349 488.771 218.73 486.836 221.26C484.901 223.754 482.725 226.191 480.306 228.572C477.925 230.954 475.394 233.074 472.715 234.935L466.687 230.302C469.962 228.256 472.734 226.116 475.004 223.884C477.311 221.614 479.227 219.437 480.753 217.354C482.278 215.233 483.506 213.354 484.436 211.716C484.883 211.047 485.348 210.154 485.832 209.037C486.353 207.884 486.743 206.842 487.004 205.912L495.097 208.423ZM526.52 226.786C527.19 226.823 528.046 226.879 529.087 226.954C530.129 226.991 531.208 227.028 532.325 227.065C533.478 227.102 534.539 227.121 535.506 227.121C536.436 227.121 537.59 227.121 538.967 227.121C540.343 227.121 541.832 227.121 543.432 227.121C545.069 227.121 546.743 227.121 548.455 227.121C550.204 227.121 551.934 227.121 553.646 227.121C555.357 227.121 556.976 227.121 558.501 227.121C560.027 227.121 561.385 227.121 562.576 227.121C563.804 227.121 564.771 227.121 565.478 227.121C566.78 227.121 568.008 227.084 569.162 227.009C570.315 226.898 571.264 226.823 572.008 226.786V235.549C571.376 235.512 570.427 235.456 569.162 235.381C567.897 235.307 566.669 235.27 565.478 235.27C564.771 235.27 563.804 235.27 562.576 235.27C561.348 235.27 559.971 235.27 558.446 235.27C556.92 235.27 555.301 235.27 553.59 235.27C551.915 235.27 550.204 235.27 548.455 235.27C546.706 235.27 545.013 235.27 543.376 235.27C541.776 235.27 540.287 235.27 538.911 235.27C537.571 235.27 536.436 235.27 535.506 235.27C533.906 235.27 532.269 235.307 530.594 235.381C528.92 235.419 527.562 235.474 526.52 235.549V226.786ZM605.218 208.535C605.032 209.242 604.846 210.023 604.66 210.879C604.511 211.698 604.362 212.46 604.213 213.167C604.064 213.986 603.878 214.916 603.655 215.958C603.432 216.963 603.208 217.986 602.985 219.028C602.799 220.033 602.594 221.019 602.371 221.986C601.999 223.586 601.534 225.447 600.976 227.567C600.418 229.688 599.767 231.977 599.022 234.433C598.278 236.851 597.441 239.288 596.511 241.744C595.58 244.2 594.594 246.6 593.553 248.944C592.511 251.251 591.394 253.335 590.204 255.195L582.948 252.293C584.25 250.544 585.46 248.591 586.576 246.433C587.729 244.237 588.771 241.986 589.701 239.679C590.632 237.372 591.45 235.102 592.157 232.87C592.901 230.637 593.534 228.554 594.055 226.619C594.576 224.684 594.985 223.028 595.283 221.651C595.804 219.121 596.213 216.684 596.511 214.34C596.808 211.995 596.939 209.781 596.901 207.698L605.218 208.535ZM624.418 213.781C625.311 214.972 626.222 216.479 627.153 218.302C628.12 220.088 629.05 221.986 629.943 223.995C630.874 226.005 631.711 227.94 632.455 229.8C633.236 231.66 633.832 233.242 634.241 234.544L627.153 237.837C626.78 236.274 626.26 234.544 625.59 232.647C624.957 230.712 624.213 228.758 623.357 226.786C622.539 224.777 621.646 222.879 620.678 221.093C619.748 219.307 618.78 217.819 617.776 216.628L624.418 213.781ZM582.557 219.977C583.562 220.051 584.548 220.088 585.515 220.088C586.483 220.051 587.487 220.014 588.529 219.977C589.422 219.94 590.52 219.884 591.822 219.809C593.162 219.698 594.557 219.586 596.008 219.474C597.497 219.363 598.985 219.251 600.474 219.14C601.962 218.991 603.339 218.879 604.604 218.805C605.869 218.73 606.911 218.693 607.729 218.693C609.701 218.693 611.432 219.028 612.92 219.698C614.446 220.33 615.636 221.428 616.492 222.991C617.385 224.554 617.832 226.674 617.832 229.354C617.832 231.549 617.72 233.93 617.497 236.498C617.311 239.065 616.994 241.521 616.548 243.865C616.101 246.209 615.469 248.2 614.65 249.837C613.757 251.772 612.529 253.112 610.967 253.856C609.441 254.6 607.618 254.972 605.497 254.972C604.418 254.972 603.264 254.879 602.036 254.693C600.846 254.544 599.767 254.377 598.799 254.191L597.571 246.823C598.315 247.009 599.115 247.195 599.971 247.381C600.864 247.567 601.701 247.716 602.483 247.828C603.301 247.94 603.953 247.995 604.436 247.995C605.367 247.995 606.185 247.828 606.892 247.493C607.599 247.121 608.176 246.488 608.622 245.595C609.143 244.516 609.553 243.121 609.85 241.409C610.185 239.698 610.427 237.856 610.576 235.884C610.762 233.874 610.855 231.958 610.855 230.135C610.855 228.647 610.65 227.549 610.241 226.842C609.832 226.135 609.218 225.67 608.399 225.447C607.618 225.186 606.632 225.056 605.441 225.056C604.622 225.056 603.469 225.13 601.98 225.279C600.529 225.391 598.985 225.54 597.348 225.726C595.711 225.874 594.167 226.042 592.715 226.228C591.301 226.414 590.204 226.544 589.422 226.619C588.641 226.767 587.618 226.935 586.353 227.121C585.125 227.27 584.083 227.419 583.227 227.567L582.557 219.977ZM656.12 207.698C657.46 208.107 659.134 208.535 661.143 208.981C663.153 209.428 665.255 209.874 667.45 210.321C669.646 210.73 671.711 211.084 673.646 211.381C675.618 211.679 677.218 211.902 678.446 212.051L676.771 218.86C675.655 218.712 674.297 218.507 672.697 218.247C671.134 217.949 669.46 217.633 667.673 217.298C665.925 216.963 664.194 216.628 662.483 216.293C660.771 215.921 659.208 215.567 657.794 215.233C656.38 214.898 655.227 214.619 654.334 214.395L656.12 207.698ZM656.455 218.916C656.269 219.66 656.064 220.628 655.841 221.819C655.655 222.972 655.469 224.181 655.283 225.447C655.097 226.712 654.911 227.921 654.725 229.074C654.576 230.228 654.446 231.195 654.334 231.977C656.864 230.154 659.506 228.814 662.26 227.958C665.05 227.102 667.897 226.674 670.799 226.674C674.074 226.674 676.864 227.27 679.171 228.46C681.478 229.651 683.227 231.214 684.418 233.149C685.646 235.084 686.26 237.186 686.26 239.456C686.26 241.986 685.72 244.33 684.641 246.488C683.562 248.647 681.794 250.488 679.339 252.014C676.883 253.54 673.664 254.619 669.683 255.251C665.701 255.884 660.808 255.958 655.004 255.474L652.883 248.163C658.464 248.907 663.153 249.019 666.948 248.498C670.743 247.94 673.608 246.86 675.543 245.26C677.515 243.623 678.501 241.633 678.501 239.288C678.501 238.06 678.148 236.981 677.441 236.051C676.734 235.084 675.748 234.34 674.483 233.819C673.218 233.26 671.785 232.981 670.185 232.981C667.06 232.981 664.12 233.558 661.367 234.712C658.65 235.828 656.418 237.447 654.669 239.567C654.185 240.163 653.776 240.721 653.441 241.242C653.143 241.726 652.864 242.247 652.604 242.805L646.185 241.186C646.408 240.107 646.632 238.842 646.855 237.391C647.078 235.902 647.301 234.321 647.525 232.647C647.748 230.935 647.953 229.223 648.139 227.512C648.325 225.8 648.492 224.107 648.641 222.433C648.79 220.758 648.901 219.233 648.976 217.856L656.455 218.916Z" fill="#333333"/>
<rect x="57.5581" y="276.605" width="395.953" height="79" rx="6.97674" fill="#F4C542"/>
<path d="M68.4416 295.795H116.386V301.823H68.4416V295.795ZM67.0463 330.065H118.06V336.149H67.0463V330.065ZM88.7579 291.219H95.6789V343.684H88.7579V291.219ZM79.1021 318.288V321.693H105.446V318.288H79.1021ZM79.1021 309.916V313.265H105.446V309.916H79.1021ZM72.6277 304.502H112.2V327.107H72.6277V304.502ZM126.432 300.316C127.549 300.279 128.609 300.242 129.614 300.205C130.618 300.13 131.381 300.075 131.902 300.037C133.056 299.963 134.47 299.851 136.144 299.702C137.856 299.516 139.753 299.33 141.837 299.144C143.958 298.958 146.209 298.772 148.59 298.586C150.972 298.4 153.446 298.195 156.014 297.972C157.949 297.786 159.865 297.637 161.763 297.526C163.697 297.377 165.521 297.265 167.232 297.191C168.981 297.079 170.507 297.005 171.809 296.968L171.865 304.112C170.86 304.112 169.707 304.13 168.404 304.168C167.102 304.205 165.8 304.279 164.497 304.391C163.232 304.465 162.097 304.633 161.093 304.893C159.418 305.34 157.856 306.102 156.404 307.181C154.953 308.223 153.688 309.47 152.609 310.921C151.567 312.335 150.749 313.879 150.153 315.554C149.558 317.191 149.26 318.847 149.26 320.521C149.26 322.344 149.577 323.963 150.209 325.377C150.879 326.754 151.772 327.944 152.888 328.949C154.042 329.916 155.381 330.735 156.907 331.405C158.432 332.037 160.07 332.521 161.818 332.856C163.604 333.191 165.446 333.414 167.344 333.526L164.721 341.172C162.377 341.023 160.088 340.651 157.856 340.056C155.66 339.461 153.595 338.642 151.66 337.6C149.725 336.558 148.032 335.293 146.581 333.805C145.167 332.279 144.032 330.549 143.177 328.614C142.358 326.642 141.949 324.447 141.949 322.028C141.949 319.349 142.377 316.893 143.232 314.661C144.088 312.391 145.149 310.419 146.414 308.744C147.716 307.033 149 305.712 150.265 304.781C149.223 304.93 147.958 305.079 146.47 305.228C145.018 305.377 143.437 305.563 141.725 305.786C140.051 305.972 138.339 306.177 136.59 306.4C134.842 306.623 133.149 306.884 131.511 307.181C129.911 307.442 128.46 307.702 127.158 307.963L126.432 300.316ZM163.884 309.581C164.367 310.251 164.87 311.051 165.39 311.981C165.949 312.875 166.488 313.786 167.009 314.716C167.53 315.609 167.977 316.428 168.349 317.172L164.107 319.07C163.4 317.507 162.711 316.13 162.042 314.94C161.409 313.749 160.646 312.54 159.753 311.312L163.884 309.581ZM170.135 307.014C170.618 307.684 171.139 308.465 171.697 309.358C172.293 310.214 172.87 311.107 173.428 312.037C173.986 312.93 174.451 313.73 174.823 314.437L170.637 316.447C169.893 314.958 169.167 313.637 168.46 312.484C167.79 311.33 166.99 310.14 166.06 308.912L170.135 307.014ZM183.753 304.447H200.33V311.088H183.753V304.447ZM211.046 292.112H218.023V332.354C218.023 333.916 218.153 334.921 218.414 335.368C218.674 335.777 219.325 335.981 220.367 335.981C220.59 335.981 220.963 335.981 221.484 335.981C222.004 335.981 222.581 335.981 223.214 335.981C223.846 335.981 224.423 335.981 224.944 335.981C225.465 335.981 225.856 335.981 226.116 335.981C226.86 335.981 227.418 335.665 227.79 335.033C228.163 334.4 228.423 333.265 228.572 331.628C228.758 329.954 228.907 327.628 229.018 324.651C229.577 325.061 230.228 325.47 230.972 325.879C231.753 326.288 232.535 326.661 233.316 326.995C234.097 327.293 234.804 327.516 235.437 327.665C235.214 331.237 234.823 334.121 234.265 336.316C233.744 338.512 232.888 340.093 231.697 341.061C230.544 342.065 228.907 342.568 226.786 342.568C226.488 342.568 225.986 342.568 225.279 342.568C224.572 342.568 223.809 342.568 222.99 342.568C222.209 342.568 221.484 342.568 220.814 342.568C220.144 342.568 219.642 342.568 219.307 342.568C217.186 342.568 215.511 342.251 214.284 341.619C213.093 341.023 212.256 339.981 211.772 338.493C211.288 336.968 211.046 334.902 211.046 332.298V292.112ZM196.981 292.112H203.958V343.014H196.981V292.112ZM229.465 300.428L234.321 306.456C232.386 307.758 230.339 309.061 228.181 310.363C226.023 311.628 223.828 312.875 221.595 314.102C219.4 315.293 217.242 316.409 215.121 317.451C214.897 316.707 214.507 315.833 213.949 314.828C213.39 313.786 212.888 312.912 212.442 312.205C214.451 311.126 216.479 309.916 218.525 308.577C220.572 307.237 222.525 305.861 224.386 304.447C226.284 303.033 227.977 301.693 229.465 300.428ZM181.744 329.73C183.27 329.284 185.037 328.744 187.046 328.112C189.056 327.442 191.177 326.716 193.409 325.935C195.642 325.116 197.856 324.316 200.051 323.535L201.335 329.563C198.544 330.828 195.679 332.075 192.739 333.302C189.837 334.53 187.177 335.647 184.758 336.651L181.744 329.73ZM240.739 321.972C241.595 321.302 242.377 320.633 243.084 319.963C243.828 319.256 244.628 318.475 245.484 317.619C246.116 316.949 246.842 316.13 247.66 315.163C248.479 314.158 249.353 313.079 250.284 311.926C251.214 310.772 252.144 309.619 253.074 308.465C254.042 307.275 254.953 306.177 255.809 305.172C257.781 302.94 259.697 301.749 261.558 301.6C263.418 301.414 265.372 302.326 267.418 304.335C268.684 305.563 269.986 306.958 271.325 308.521C272.702 310.084 274.042 311.647 275.344 313.209C276.646 314.772 277.856 316.149 278.972 317.34C279.865 318.344 280.814 319.386 281.818 320.465C282.86 321.544 283.958 322.679 285.111 323.87C286.265 325.061 287.474 326.251 288.739 327.442C290.004 328.633 291.288 329.823 292.59 331.014L286.842 337.712C285.539 336.409 284.163 334.995 282.711 333.47C281.26 331.944 279.828 330.381 278.414 328.781C277.037 327.181 275.735 325.712 274.507 324.372C273.39 322.995 272.2 321.544 270.935 320.019C269.707 318.456 268.516 316.968 267.363 315.554C266.209 314.14 265.186 312.949 264.293 311.981C263.66 311.237 263.084 310.772 262.563 310.586C262.079 310.4 261.595 310.437 261.111 310.698C260.665 310.958 260.181 311.442 259.66 312.149C259.102 312.856 258.451 313.693 257.707 314.661C257 315.628 256.237 316.67 255.418 317.786C254.637 318.865 253.874 319.926 253.13 320.968C252.386 321.972 251.697 322.865 251.065 323.647C250.432 324.577 249.8 325.507 249.167 326.437C248.572 327.368 248.032 328.205 247.549 328.949L240.739 321.972ZM324.237 316.447L329.651 313.768C330.618 315.033 331.586 316.428 332.553 317.954C333.521 319.442 334.395 320.93 335.177 322.419C335.958 323.87 336.535 325.191 336.907 326.381L331.102 329.395C330.767 328.242 330.228 326.921 329.484 325.433C328.777 323.907 327.958 322.363 327.028 320.8C326.135 319.237 325.204 317.786 324.237 316.447ZM326.135 300.651H346.172V307.014H326.135V300.651ZM343.27 300.651H349.744C349.744 300.651 349.744 300.856 349.744 301.265C349.744 301.675 349.744 302.121 349.744 302.605C349.744 303.088 349.725 303.479 349.688 303.777C349.502 309.916 349.297 315.144 349.074 319.461C348.888 323.74 348.646 327.275 348.349 330.065C348.051 332.856 347.697 335.051 347.288 336.651C346.916 338.251 346.432 339.423 345.837 340.168C345.056 341.247 344.237 341.991 343.381 342.4C342.563 342.809 341.558 343.107 340.367 343.293C339.363 343.442 338.06 343.516 336.46 343.516C334.897 343.516 333.279 343.498 331.604 343.461C331.567 342.493 331.344 341.358 330.935 340.056C330.525 338.791 330.004 337.675 329.372 336.707C331.158 336.856 332.795 336.949 334.284 336.986C335.772 337.023 336.87 337.042 337.577 337.042C338.172 337.042 338.637 336.968 338.972 336.819C339.344 336.67 339.697 336.428 340.032 336.093C340.479 335.609 340.87 334.623 341.204 333.135C341.539 331.647 341.818 329.563 342.042 326.884C342.302 324.168 342.525 320.763 342.711 316.67C342.935 312.577 343.121 307.684 343.27 301.991V300.651ZM326.47 291.107L333.39 292.67C332.609 295.423 331.66 298.14 330.544 300.819C329.465 303.461 328.274 305.935 326.972 308.242C325.67 310.549 324.311 312.558 322.897 314.27C322.451 313.861 321.874 313.395 321.167 312.875C320.46 312.354 319.716 311.851 318.935 311.368C318.153 310.884 317.484 310.493 316.925 310.195C318.377 308.707 319.697 306.958 320.888 304.949C322.079 302.902 323.139 300.707 324.07 298.363C325.037 295.981 325.837 293.563 326.47 291.107ZM306.767 291.219L312.684 293.284C311.939 294.735 311.158 296.223 310.339 297.749C309.521 299.237 308.721 300.688 307.939 302.102C307.158 303.479 306.395 304.688 305.651 305.73L301.13 303.888C301.8 302.735 302.488 301.433 303.195 299.981C303.902 298.493 304.572 296.986 305.204 295.461C305.837 293.935 306.358 292.521 306.767 291.219ZM313.465 297.861L319.158 300.205C317.781 302.326 316.293 304.558 314.693 306.902C313.093 309.209 311.474 311.423 309.837 313.544C308.2 315.665 306.674 317.526 305.26 319.126L301.186 317.061C302.265 315.795 303.363 314.363 304.479 312.763C305.595 311.163 306.693 309.507 307.772 307.795C308.888 306.084 309.93 304.372 310.897 302.661C311.902 300.912 312.758 299.312 313.465 297.861ZM298.172 304.447L301.353 299.87C302.321 300.688 303.325 301.619 304.367 302.661C305.409 303.665 306.358 304.67 307.214 305.675C308.107 306.679 308.777 307.609 309.223 308.465L305.818 313.656C305.372 312.8 304.721 311.833 303.865 310.754C303.046 309.637 302.135 308.54 301.13 307.461C300.125 306.344 299.139 305.34 298.172 304.447ZM312.125 311.312L316.87 309.247C317.614 310.475 318.339 311.795 319.046 313.209C319.753 314.623 320.367 316.019 320.888 317.395C321.409 318.735 321.8 319.944 322.06 321.023L316.925 323.368C316.702 322.326 316.349 321.116 315.865 319.74C315.381 318.326 314.804 316.893 314.135 315.442C313.502 313.954 312.832 312.577 312.125 311.312ZM298.172 315.777C300.739 315.702 303.828 315.591 307.437 315.442C311.084 315.293 314.786 315.126 318.544 314.94L318.488 320.242C314.99 320.502 311.511 320.763 308.051 321.023C304.59 321.247 301.484 321.433 298.73 321.581L298.172 315.777ZM313.074 325.265L317.986 323.647C318.767 325.321 319.493 327.144 320.163 329.116C320.832 331.088 321.316 332.8 321.614 334.251L316.423 336.149C316.163 334.661 315.716 332.912 315.084 330.902C314.451 328.856 313.781 326.977 313.074 325.265ZM300.572 323.981L306.097 324.986C305.8 327.665 305.353 330.307 304.758 332.912C304.163 335.516 303.474 337.712 302.693 339.498C302.321 339.237 301.818 338.94 301.186 338.605C300.553 338.307 299.902 338.009 299.232 337.712C298.6 337.414 298.042 337.191 297.558 337.042C298.377 335.368 299.028 333.377 299.511 331.07C299.995 328.726 300.349 326.363 300.572 323.981ZM307.046 318.735H312.963V343.628H307.046V318.735ZM370.228 339.386C368.032 339.386 366.079 339.126 364.367 338.605C362.656 338.084 361.13 337.395 359.79 336.54C358.451 335.684 357.26 334.754 356.218 333.749L360.014 328.502C360.795 329.284 361.632 329.991 362.525 330.623C363.456 331.256 364.46 331.758 365.539 332.13C366.656 332.502 367.846 332.688 369.111 332.688C370.525 332.688 371.772 332.391 372.851 331.795C373.967 331.2 374.842 330.344 375.474 329.228C376.107 328.075 376.423 326.698 376.423 325.098C376.423 322.716 375.772 320.875 374.47 319.572C373.204 318.27 371.53 317.619 369.446 317.619C368.256 317.619 367.232 317.786 366.377 318.121C365.521 318.419 364.479 318.958 363.251 319.74L359.511 317.34L360.628 297.247H382.73V304.168H367.716L366.935 312.93C367.753 312.558 368.553 312.279 369.335 312.093C370.116 311.907 370.972 311.814 371.902 311.814C374.209 311.814 376.33 312.279 378.265 313.209C380.2 314.102 381.744 315.516 382.897 317.451C384.051 319.386 384.628 321.861 384.628 324.875C384.628 327.926 383.939 330.549 382.563 332.744C381.223 334.902 379.456 336.558 377.26 337.712C375.102 338.828 372.758 339.386 370.228 339.386ZM400.805 311.702H431V318.177H400.805V311.702ZM428.768 311.702H435.8C435.8 311.702 435.8 311.888 435.8 312.261C435.8 312.595 435.8 313.005 435.8 313.488C435.8 313.935 435.782 314.307 435.745 314.605C435.596 318.809 435.428 322.437 435.242 325.488C435.056 328.502 434.833 331.014 434.572 333.023C434.349 335.033 434.07 336.633 433.735 337.823C433.4 339.014 432.991 339.907 432.507 340.502C431.763 341.395 430.982 342.028 430.163 342.4C429.382 342.772 428.452 343.033 427.372 343.181C426.442 343.33 425.214 343.405 423.689 343.405C422.163 343.442 420.563 343.423 418.889 343.349C418.852 342.344 418.628 341.191 418.219 339.888C417.81 338.623 417.307 337.526 416.712 336.595C418.275 336.707 419.726 336.781 421.065 336.819C422.405 336.856 423.41 336.875 424.079 336.875C424.6 336.875 425.028 336.837 425.363 336.763C425.698 336.651 426.033 336.428 426.368 336.093C426.814 335.609 427.168 334.549 427.428 332.912C427.726 331.237 427.986 328.781 428.21 325.544C428.433 322.27 428.619 318.047 428.768 312.875V311.702ZM407.056 291.888L414.312 294.009C412.935 297.247 411.279 300.372 409.345 303.386C407.447 306.4 405.382 309.172 403.149 311.702C400.954 314.233 398.665 316.428 396.284 318.288C395.875 317.805 395.317 317.228 394.61 316.558C393.903 315.851 393.177 315.163 392.433 314.493C391.726 313.823 391.093 313.284 390.535 312.875C392.842 311.312 395.038 309.451 397.121 307.293C399.242 305.098 401.159 302.698 402.87 300.093C404.582 297.451 405.977 294.716 407.056 291.888ZM428.321 291.777C429.214 293.563 430.293 295.386 431.559 297.247C432.824 299.107 434.2 300.93 435.689 302.716C437.214 304.465 438.759 306.121 440.321 307.684C441.921 309.247 443.484 310.605 445.01 311.758C444.414 312.205 443.745 312.8 443 313.544C442.293 314.251 441.605 314.977 440.935 315.721C440.303 316.465 439.763 317.154 439.317 317.786C437.754 316.335 436.172 314.716 434.572 312.93C432.972 311.107 431.391 309.191 429.828 307.181C428.303 305.135 426.852 303.033 425.475 300.875C424.098 298.679 422.852 296.521 421.735 294.4L428.321 291.777ZM410.74 313.6H418.052C417.791 316.726 417.363 319.777 416.768 322.754C416.172 325.73 415.186 328.54 413.81 331.181C412.47 333.823 410.517 336.242 407.949 338.437C405.419 340.595 402.07 342.437 397.903 343.963C397.642 343.33 397.27 342.642 396.786 341.898C396.303 341.154 395.782 340.409 395.224 339.665C394.665 338.958 394.107 338.344 393.549 337.823C397.307 336.633 400.284 335.163 402.479 333.414C404.675 331.628 406.331 329.693 407.447 327.609C408.563 325.488 409.326 323.237 409.735 320.856C410.182 318.475 410.517 316.056 410.74 313.6Z" fill="#333333"/>
</g>
<defs>
<clipPath id="clip0_375_2604">
<rect width="750" height="383.512" fill="white"/>
</clipPath>
</defs>
</svg>
