<svg width="750" height="135" viewBox="0 0 750 135" fill="none" xmlns="http://www.w3.org/2000/svg">
<g clip-path="url(#clip0_375_1300)">
<rect width="750" height="134.814" fill="#F1F1F1"/>
<rect width="750" height="134.814" fill="white"/>
<rect width="750" height="134.814" fill="#5AA89C"/>
<path d="M157.66 47.9349H201.753V93.7023H194.442V54.7442H164.637V93.814H157.66V47.9349ZM161.009 82.3721H199.019V89.2372H161.009V82.3721ZM216.321 50.2791C217.363 50.3907 218.535 50.4837 219.837 50.5581C221.14 50.5954 222.256 50.614 223.186 50.614H251.316C252.135 50.614 253.028 50.614 253.995 50.614C255 50.5767 255.744 50.5395 256.228 50.5023C256.191 51.1349 256.153 51.9535 256.116 52.9581C256.079 53.9256 256.06 54.8186 256.06 55.6372V84.5488C256.06 85.5163 256.079 86.6512 256.116 87.9535C256.191 89.2558 256.247 90.3163 256.284 91.1349H248.191C248.228 90.3163 248.247 89.4233 248.247 88.4558C248.284 87.4512 248.302 86.4465 248.302 85.4419V57.814H223.242C222.051 57.814 220.786 57.8326 219.447 57.8698C218.144 57.907 217.102 57.9628 216.321 58.0372V50.2791ZM215.595 80.5861C216.563 80.6605 217.642 80.7349 218.833 80.8093C220.06 80.8837 221.307 80.9209 222.572 80.9209H252.712V88.2326H222.795C221.716 88.2326 220.47 88.2698 219.056 88.3442C217.679 88.4186 216.526 88.493 215.595 88.5674V80.5861ZM279.279 46.2047C280.73 46.3907 282.479 46.6698 284.526 47.0419C286.609 47.3767 288.805 47.7674 291.112 48.214C293.456 48.6605 295.781 49.1628 298.088 49.7209C300.433 50.2419 302.591 50.7628 304.563 51.2837C306.572 51.8047 308.284 52.307 309.698 52.7907L306.851 59.7674C305.549 59.2837 303.93 58.7814 301.995 58.2605C300.06 57.7023 297.958 57.1442 295.688 56.5861C293.419 56.0279 291.13 55.507 288.823 55.0233C286.516 54.5395 284.302 54.093 282.181 53.6837C280.098 53.2744 278.256 52.9767 276.656 52.7907L279.279 46.2047ZM276.712 61.2186C278.721 61.5535 281.028 61.9814 283.633 62.5023C286.237 63.0233 288.916 63.6 291.67 64.2326C294.423 64.8279 297.047 65.4605 299.54 66.1302C302.033 66.7628 304.153 67.3954 305.902 68.0279L303.167 75.0047C301.567 74.3721 299.54 73.7209 297.084 73.0512C294.665 72.3814 292.079 71.7116 289.326 71.0419C286.609 70.3721 283.912 69.7767 281.233 69.2558C278.553 68.6977 276.191 68.2698 274.144 67.9721L276.712 61.2186ZM273.865 77.1814C275.763 77.4791 277.921 77.8698 280.34 78.3535C282.758 78.8372 285.27 79.3767 287.874 79.9721C290.516 80.5674 293.102 81.1814 295.633 81.814C298.163 82.4465 300.507 83.0791 302.665 83.7116C304.86 84.3442 306.721 84.9581 308.247 85.5535L305.177 92.5302C303.688 91.8977 301.847 91.2465 299.651 90.5767C297.456 89.9442 295.074 89.3116 292.507 88.6791C289.94 88.0093 287.353 87.3954 284.749 86.8372C282.144 86.2419 279.651 85.7209 277.27 85.2744C274.926 84.8279 272.86 84.4744 271.074 84.214L273.865 77.1814ZM347.093 61.5535C348.433 61.5535 349.623 61.8884 350.665 62.5581C351.744 63.1907 352.6 64.0465 353.233 65.1256C353.902 66.1674 354.237 67.3581 354.237 68.6977C354.237 70 353.902 71.1907 353.233 72.2698C352.6 73.3488 351.744 74.2233 350.665 74.893C349.623 75.5256 348.433 75.8419 347.093 75.8419C345.791 75.8419 344.6 75.5256 343.521 74.893C342.442 74.2233 341.567 73.3488 340.898 72.2698C340.265 71.1907 339.949 70 339.949 68.6977C339.949 67.3581 340.265 66.1674 340.898 65.1256C341.567 64.0465 342.442 63.1907 343.521 62.5581C344.6 61.8884 345.791 61.5535 347.093 61.5535ZM399.391 42.5767H406.312V51.4512H399.391V42.5767ZM378.963 47.3767H426.795V59.3767H419.874V53.2372H385.605V59.3767H378.963V47.3767ZM383.986 57.7023H422.33V63.1163H383.986V57.7023ZM378.516 75.3395H427.577V81.1442H378.516V75.3395ZM384.879 66.4651H421.158V71.8233H384.879V66.4651ZM406.2 76.5116C407.874 80.1954 410.535 83.0791 414.181 85.1628C417.828 87.2465 422.553 88.5861 428.358 89.1814C427.688 89.8884 426.963 90.8186 426.181 91.9721C425.437 93.1256 424.842 94.1488 424.395 95.0419C420.153 94.3721 416.488 93.3116 413.4 91.8605C410.312 90.4465 407.688 88.5861 405.53 86.2791C403.409 83.9349 401.642 81.107 400.228 77.7954L406.2 76.5116ZM399.223 54.5209H405.977V70.0372C405.977 71.9721 405.772 73.907 405.363 75.8419C404.991 77.7767 404.284 79.6558 403.242 81.4791C402.237 83.2651 400.805 84.9767 398.944 86.614C397.121 88.2512 394.795 89.7581 391.967 91.1349C389.14 92.5488 385.698 93.814 381.642 94.9302C381.381 94.4093 381.009 93.814 380.526 93.1442C380.079 92.5116 379.577 91.8605 379.019 91.1907C378.498 90.5209 377.977 89.9628 377.456 89.5163C381.326 88.6233 384.563 87.6186 387.167 86.5023C389.809 85.3861 391.912 84.1767 393.474 82.8744C395.074 81.5721 396.284 80.214 397.102 78.8C397.921 77.3488 398.479 75.8977 398.777 74.4465C399.074 72.9581 399.223 71.4512 399.223 69.9256V54.5209ZM465.14 42.4651H471.837V60.3256H465.14V42.4651ZM453.865 45.0884H483.502V49.107H453.865V45.0884ZM455.205 51.0047H482.163V54.9116H455.205V51.0047ZM452.47 56.8093H484.619V60.9954H452.47V56.8093ZM461.958 73.107V75.507H475.577V73.107H461.958ZM461.958 79.3581V81.7581H475.577V79.3581H461.958ZM461.958 66.9674V69.3116H475.577V66.9674H461.958ZM455.986 62.8372H481.884V85.8884H455.986V62.8372ZM470.33 88.4L474.795 85.2186C476.023 85.8884 477.288 86.6326 478.591 87.4512C479.93 88.2698 481.195 89.0698 482.386 89.8512C483.577 90.5954 484.6 91.2465 485.456 91.8047L479.595 94.9861C478.926 94.4279 478.07 93.7581 477.028 92.9768C475.986 92.2326 474.888 91.4512 473.735 90.6326C472.581 89.814 471.447 89.0698 470.33 88.4ZM462.181 84.9395L467.372 88.3442C466.256 89.2372 464.935 90.1116 463.409 90.9674C461.884 91.8605 460.284 92.6605 458.609 93.3674C456.972 94.0744 455.391 94.6698 453.865 95.1535C453.381 94.5581 452.73 93.8512 451.912 93.0326C451.13 92.2512 450.405 91.5628 449.735 90.9674C451.26 90.5581 452.805 90.0186 454.367 89.3488C455.93 88.6419 457.4 87.9163 458.777 87.1721C460.154 86.3907 461.288 85.6465 462.181 84.9395ZM440.805 42.5209L446.609 44.5861C445.865 46.0372 445.084 47.5256 444.265 49.0512C443.447 50.5395 442.647 51.9907 441.865 53.4047C441.084 54.7814 440.34 55.9907 439.633 57.0326L435.167 55.1907C435.837 54.0372 436.526 52.7349 437.233 51.2837C437.94 49.8326 438.609 48.3256 439.242 46.7628C439.912 45.2 440.433 43.786 440.805 42.5209ZM447.112 49.1628L452.581 51.6186C451.205 53.7023 449.716 55.8977 448.116 58.2047C446.516 60.5116 444.916 62.7256 443.316 64.8465C441.716 66.9674 440.191 68.8279 438.74 70.4279L434.888 68.307C435.93 67.0419 437.009 65.6279 438.126 64.0651C439.279 62.4651 440.395 60.8093 441.474 59.0977C442.591 57.3488 443.633 55.6186 444.6 53.907C445.567 52.1954 446.405 50.614 447.112 49.1628ZM432.209 55.5814L435.502 51.0605C436.433 51.9535 437.4 52.9209 438.405 53.9628C439.409 55.0047 440.34 56.0465 441.195 57.0884C442.051 58.1302 442.684 59.0977 443.093 59.9907L439.521 65.0698C439.112 64.1767 438.498 63.1721 437.679 62.0558C436.898 60.9395 436.023 59.8233 435.056 58.707C434.088 57.5535 433.14 56.5116 432.209 55.5814ZM445.549 62.3349L450.293 60.4372C451 61.7023 451.67 63.0419 452.302 64.4558C452.972 65.8698 453.549 67.2651 454.033 68.6419C454.554 69.9814 454.926 71.1907 455.149 72.2698L450.07 74.5023C449.884 73.4233 449.549 72.1954 449.065 70.8186C448.619 69.4047 448.079 67.9721 447.447 66.5209C446.851 65.0326 446.219 63.6372 445.549 62.3349ZM432.042 66.9674C434.535 66.8558 437.474 66.707 440.86 66.5209C444.247 66.2977 447.688 66.0744 451.186 65.8512L451.298 71.3209C447.986 71.6186 444.674 71.8791 441.363 72.1023C438.088 72.3256 435.13 72.5488 432.488 72.7721L432.042 66.9674ZM446.888 76.3442L451.577 74.893C452.247 76.4186 452.842 78.1116 453.363 79.9721C453.884 81.8326 454.237 83.414 454.423 84.7163L449.456 86.3907C449.307 85.014 448.991 83.3954 448.507 81.5349C448.06 79.6372 447.521 77.907 446.888 76.3442ZM434.442 75.2837L439.8 76.2326C439.502 78.9116 439.056 81.5535 438.46 84.1581C437.902 86.7256 437.233 88.9023 436.451 90.6884C436.079 90.4279 435.595 90.1488 435 89.8512C434.405 89.5535 433.791 89.2744 433.158 89.014C432.526 88.7163 431.986 88.493 431.54 88.3442C432.358 86.6698 432.991 84.6605 433.437 82.3163C433.884 79.9721 434.219 77.6279 434.442 75.2837ZM440.526 69.9814H446.33V94.9302H440.526V69.9814ZM515.874 86.5581H535.074V92.4186H515.874V86.5581ZM512.749 71.1535H538.367V94.5954H531.893V77.014H518.888V94.8186H512.749V71.1535ZM510.74 45.0884H536.302V51.2279H510.74V45.0884ZM533.233 45.0884H539.484C539.484 45.0884 539.465 45.4047 539.428 46.0372C539.428 46.6326 539.409 47.1349 539.372 47.5442C539.26 51.414 539.13 54.5954 538.981 57.0884C538.833 59.5442 538.628 61.4605 538.367 62.8372C538.107 64.214 537.735 65.2 537.251 65.7954C536.693 66.5023 536.079 67.0233 535.409 67.3581C534.777 67.6558 533.995 67.8605 533.065 67.9721C532.358 68.0837 531.391 68.1581 530.163 68.1954C528.935 68.1954 527.633 68.1767 526.256 68.1395C526.219 67.1721 526.014 66.1116 525.642 64.9581C525.307 63.8047 524.879 62.8 524.358 61.9442C525.512 62.0558 526.609 62.1302 527.651 62.1674C528.693 62.1674 529.474 62.1674 529.995 62.1674C530.442 62.1674 530.795 62.1488 531.056 62.1116C531.316 62.0372 531.577 61.8698 531.837 61.6093C532.098 61.2744 532.302 60.5674 532.451 59.4884C532.637 58.3721 532.786 56.7349 532.898 54.5767C533.047 52.4186 533.158 49.5721 533.233 46.0372V45.0884ZM518.777 47.6558H525.363C525.14 50 524.786 52.2512 524.302 54.4093C523.856 56.5302 523.167 58.5395 522.237 60.4372C521.344 62.2977 520.098 64.0093 518.498 65.5721C516.898 67.0977 514.87 68.4372 512.414 69.5907C512.042 68.8093 511.465 67.9349 510.684 66.9674C509.94 65.9628 509.214 65.1628 508.507 64.5674C510.591 63.6744 512.265 62.6326 513.53 61.4419C514.833 60.214 515.819 58.893 516.488 57.4791C517.195 56.0279 517.698 54.4651 517.995 52.7907C518.33 51.1163 518.591 49.4047 518.777 47.6558ZM496.674 42.5209L502.479 44.6977C501.735 46.1116 500.954 47.5814 500.135 49.107C499.316 50.6326 498.516 52.0837 497.735 53.4605C496.954 54.8372 496.209 56.0279 495.502 57.0326L491.037 55.1349C491.707 53.9814 492.395 52.6791 493.102 51.2279C493.809 49.7767 494.479 48.2884 495.112 46.7628C495.744 45.2372 496.265 43.8233 496.674 42.5209ZM503.093 49.1628L508.563 51.6186C507.223 53.7395 505.754 55.9721 504.154 58.3163C502.554 60.6233 500.954 62.8558 499.354 65.014C497.754 67.1349 496.247 68.9954 494.833 70.5954L490.926 68.4186C491.967 67.1535 493.047 65.7395 494.163 64.1767C495.279 62.5767 496.377 60.9209 497.456 59.2093C498.572 57.4605 499.614 55.7302 500.581 54.0186C501.549 52.2698 502.386 50.6512 503.093 49.1628ZM488.079 55.7488L491.316 51.1721C492.284 52.0279 493.27 52.9767 494.274 54.0186C495.316 55.0233 496.265 56.0465 497.121 57.0884C498.014 58.093 498.684 59.0047 499.13 59.8233L495.726 65.014C495.279 64.1209 494.628 63.1349 493.772 62.0558C492.954 60.9767 492.042 59.8791 491.037 58.7628C490.033 57.6465 489.047 56.6419 488.079 55.7488ZM501.474 62.4465L505.884 60.6047C506.591 61.8698 507.279 63.2279 507.949 64.6791C508.656 66.093 509.251 67.4884 509.735 68.8651C510.256 70.2047 510.609 71.414 510.795 72.493L506.051 74.614C505.865 73.5349 505.53 72.307 505.047 70.9302C504.6 69.5163 504.06 68.0651 503.428 66.5767C502.795 65.0884 502.144 63.7116 501.474 62.4465ZM488.023 67.0791C490.591 67.0047 493.66 66.893 497.233 66.7442C500.805 66.5954 504.433 66.4465 508.116 66.2977L508.06 71.6C504.6 71.8605 501.158 72.1023 497.735 72.3256C494.349 72.5488 491.298 72.7535 488.581 72.9395L488.023 67.0791ZM502.647 76.3442L507.335 74.8372C508.042 76.4372 508.712 78.1861 509.344 80.0837C510.014 81.9442 510.516 83.5814 510.851 84.9954L505.884 86.7814C505.623 85.3674 505.177 83.693 504.544 81.7581C503.912 79.7861 503.279 77.9814 502.647 76.3442ZM490.479 75.2837L496.005 76.2884C495.707 78.9674 495.26 81.6093 494.665 84.214C494.07 86.8186 493.381 89.014 492.6 90.8C492.228 90.5395 491.726 90.2419 491.093 89.907C490.46 89.6093 489.809 89.3116 489.14 89.014C488.507 88.7163 487.949 88.493 487.465 88.3442C488.284 86.6698 488.935 84.6791 489.419 82.3721C489.902 80.0279 490.256 77.6651 490.479 75.2837ZM496.73 70.0372H502.591V94.9302H496.73V70.0372ZM570.126 49.2186C568.712 51.5628 566.851 53.9442 564.544 56.3628C562.237 58.7814 559.651 61.0884 556.786 63.2837C553.958 65.4419 550.981 67.3395 547.856 68.9767C547.595 68.4186 547.223 67.8047 546.74 67.1349C546.256 66.4651 545.753 65.7954 545.233 65.1256C544.712 64.4558 544.209 63.8977 543.726 63.4512C547.037 61.8512 550.144 59.8791 553.046 57.5349C555.986 55.1907 558.591 52.6977 560.86 50.0558C563.13 47.3767 564.916 44.8093 566.219 42.3535H573.419C574.87 44.6977 576.488 46.9116 578.274 48.9954C580.098 51.0791 582.014 52.9954 584.023 54.7442C586.07 56.4558 588.209 57.9814 590.442 59.3209C592.674 60.6605 594.926 61.7767 597.195 62.6698C596.34 63.5256 595.54 64.5116 594.795 65.6279C594.051 66.707 593.381 67.7674 592.786 68.8093C589.809 67.2837 586.87 65.4605 583.967 63.3395C581.065 61.2186 578.405 58.9488 575.986 56.5302C573.605 54.0744 571.651 51.6372 570.126 49.2186ZM576.321 62.9488H583.298V94.8744H576.321V62.9488ZM557.065 63.2279H563.986V70.1488C563.986 72.1209 563.856 74.2047 563.595 76.4C563.372 78.5581 562.851 80.7349 562.033 82.9302C561.251 85.1256 560.042 87.2465 558.405 89.293C556.805 91.3395 554.628 93.2186 551.874 94.9302C551.465 94.4465 550.926 93.8884 550.256 93.2558C549.623 92.6605 548.953 92.0651 548.246 91.4698C547.54 90.9116 546.888 90.4651 546.293 90.1302C548.712 88.6791 550.646 87.1163 552.098 85.4419C553.549 83.7674 554.628 82.0558 555.335 80.307C556.042 78.5209 556.507 76.7535 556.73 75.0047C556.953 73.2558 557.065 71.5814 557.065 69.9814V63.2279Z" fill="white"/>
</g>
<defs>
<clipPath id="clip0_375_1300">
<rect width="750" height="134.814" fill="white"/>
</clipPath>
</defs>
</svg>
