<svg width="384" height="117" viewBox="0 0 384 117" fill="none" xmlns="http://www.w3.org/2000/svg">
<rect x="5" y="5" width="379" height="112" rx="10" fill="#1A988A"/>
<rect x="1.5" y="1.5" width="376" height="109" rx="8.5" fill="#20B4A1" stroke="#1A988A" stroke-width="3"/>
<path d="M29.955 70.67L28.38 67.555C30.2 66.5517 31.915 65.5367 33.525 64.51C35.135 63.4833 36.6867 62.3983 38.18 61.255C39.6733 60.1117 41.1433 58.8867 42.59 57.58H47.21C48.6567 58.8867 50.1267 60.1117 51.62 61.255C53.1133 62.3983 54.665 63.4833 56.275 64.51C57.885 65.5367 59.6 66.5517 61.42 67.555L59.845 70.67C57.0683 69.1767 54.4317 67.555 51.935 65.805C49.4617 64.0317 47.1167 62.1067 44.9 60.03C42.6833 62.1067 40.3267 64.0317 37.83 65.805C35.3567 67.555 32.7317 69.1767 29.955 70.67ZM42.52 89.22L40.525 86.28C43.5817 84.7167 46.37 82.9433 48.89 80.96C51.41 78.9767 53.51 76.9467 55.19 74.87L58.375 76.375C57.045 78.0783 55.575 79.7 53.965 81.24C52.355 82.7567 50.5933 84.18 48.68 85.51C46.79 86.84 44.7367 88.0767 42.52 89.22ZM31.425 76.375V73.12H58.375V76.375H31.425ZM35.625 69.725V66.575H54.175V69.725H35.625ZM72.9 84.845C75.0233 84.7283 76.925 84.3317 78.605 83.655C80.285 82.9783 81.6033 82.0917 82.56 80.995C83.54 79.8983 84.03 78.685 84.03 77.355V76.55L85.85 76.97C85.64 77.5067 85.3017 77.9967 84.835 78.44C84.3917 78.8833 83.8433 79.2683 83.19 79.595C82.56 79.9217 81.86 80.1783 81.09 80.365C80.3433 80.5517 79.5617 80.645 78.745 80.645C77.2517 80.645 75.945 80.3533 74.825 79.77C73.7283 79.1633 72.8767 78.3233 72.27 77.25C71.6633 76.1767 71.36 74.9283 71.36 73.505C71.36 72.035 71.675 70.7633 72.305 69.69C72.9583 68.6167 73.8567 67.7883 75 67.205C76.1667 66.5983 77.5317 66.295 79.095 66.295C80.5417 66.295 81.79 66.5517 82.84 67.065C83.9133 67.5783 84.8933 68.3367 85.78 69.34L83.19 69.935V57.37H86.9V73.12L86.62 71.405C87.0167 72.0817 87.2967 72.77 87.46 73.47C87.6233 74.17 87.705 74.9633 87.705 75.85C87.705 78.2067 87.1217 80.2833 85.955 82.08C84.8117 83.8533 83.1667 85.2533 81.02 86.28C78.8967 87.33 76.3767 87.9367 73.46 88.1L72.9 84.845ZM79.445 77.495C80.0983 77.495 80.6817 77.4017 81.195 77.215C81.7083 77.0283 82.1517 76.76 82.525 76.41C82.8983 76.06 83.1783 75.64 83.365 75.15C83.575 74.6367 83.68 74.0767 83.68 73.47C83.68 72.2333 83.295 71.2533 82.525 70.53C81.7783 69.8067 80.7517 69.445 79.445 69.445C78.1617 69.445 77.135 69.8067 76.365 70.53C75.595 71.2533 75.21 72.2333 75.21 73.47C75.21 74.6833 75.595 75.6633 76.365 76.41C77.135 77.1333 78.1617 77.495 79.445 77.495ZM65.9 64.58V61.605H96.7V64.58H65.9ZM124.875 89.64C123.125 88.31 121.527 87.12 120.08 86.07C118.633 85.0433 117.292 84.1217 116.055 83.305C114.818 82.465 113.628 81.6833 112.485 80.96C111.342 80.2133 110.175 79.4783 108.985 78.755C107.795 78.0083 106.827 77.39 106.08 76.9C105.357 76.41 104.797 75.9783 104.4 75.605C104.003 75.2083 103.723 74.8117 103.56 74.415C103.42 74.0183 103.35 73.5633 103.35 73.05C103.35 72.49 103.432 72.0117 103.595 71.615C103.758 71.195 104.05 70.7867 104.47 70.39C104.89 69.97 105.485 69.515 106.255 69.025C107.025 68.535 108.017 67.94 109.23 67.24C110.513 66.5167 111.925 65.6883 113.465 64.755C115.028 63.7983 116.685 62.7483 118.435 61.605C120.208 60.4383 122.017 59.19 123.86 57.86L126.135 60.835C125.015 61.6283 123.86 62.41 122.67 63.18C121.503 63.95 120.36 64.685 119.24 65.385C118.12 66.085 117.047 66.7383 116.02 67.345C115.017 67.9283 114.107 68.4533 113.29 68.92C112.497 69.3633 111.843 69.7367 111.33 70.04C110.327 70.6 109.545 71.055 108.985 71.405C108.448 71.755 108.075 72.0467 107.865 72.28C107.655 72.5133 107.55 72.7583 107.55 73.015C107.55 73.2717 107.62 73.505 107.76 73.715C107.923 73.925 108.238 74.1817 108.705 74.485C109.195 74.7883 109.93 75.2433 110.91 75.85C111.47 76.1533 112.182 76.5733 113.045 77.11C113.908 77.6233 114.888 78.23 115.985 78.93C117.105 79.6067 118.283 80.3533 119.52 81.17C120.757 81.9867 122.028 82.8617 123.335 83.795C124.665 84.705 125.972 85.65 127.255 86.63L124.875 89.64ZM124.07 74.765C123.533 73.575 122.962 72.4433 122.355 71.37C121.748 70.2967 121.048 69.1883 120.255 68.045L123.125 66.435C123.918 67.5783 124.618 68.71 125.225 69.83C125.855 70.9267 126.45 72.0933 127.01 73.33L124.07 74.765ZM129.285 72.77C128.772 71.5567 128.212 70.4133 127.605 69.34C127.022 68.2433 126.357 67.1233 125.61 65.98L128.445 64.475C129.215 65.6183 129.903 66.75 130.51 67.87C131.14 68.99 131.712 70.18 132.225 71.44L129.285 72.77ZM163.2 88.03C162.663 88.03 161.928 87.9833 160.995 87.89C160.062 87.82 158.977 87.715 157.74 87.575L157.705 84.18C158.708 84.32 159.63 84.425 160.47 84.495C161.31 84.565 161.987 84.6 162.5 84.6C162.897 84.6 163.247 84.5417 163.55 84.425C163.877 84.285 164.157 84.0167 164.39 83.62C164.647 83.2 164.868 82.5933 165.055 81.8C165.242 81.0067 165.382 79.9567 165.475 78.65C165.592 77.32 165.673 75.675 165.72 73.715C165.79 71.755 165.825 69.41 165.825 66.68V62.83H150.425V59.575H169.5V64.37C169.5 67.9867 169.453 71.09 169.36 73.68C169.29 76.2467 169.15 78.405 168.94 80.155C168.753 81.8817 168.497 83.27 168.17 84.32C167.867 85.37 167.482 86.1633 167.015 86.7C166.548 87.2367 166 87.5867 165.37 87.75C164.74 87.9367 164.017 88.03 163.2 88.03ZM142.025 89.15V73.75H145.63V89.15H142.025ZM138.315 80.855L137.125 77.11C139.342 75.5933 141.208 73.8667 142.725 71.93C144.242 69.97 145.408 67.8 146.225 65.42L149.62 66.225C148.943 68.1617 148.138 69.9583 147.205 71.615C146.295 73.2717 145.233 74.7883 144.02 76.165V75.57C143.297 76.5267 142.433 77.4717 141.43 78.405C140.427 79.3383 139.388 80.155 138.315 80.855ZM149.235 80.575C148.535 79.6183 147.683 78.545 146.68 77.355C145.677 76.1417 144.72 75.01 143.81 73.96L146.155 71.79C147.112 72.8167 148.092 73.9367 149.095 75.15C150.098 76.34 150.962 77.4133 151.685 78.37L149.235 80.575ZM148.99 77.355L146.61 75.255C147.403 74.415 148.162 73.4583 148.885 72.385C149.632 71.3117 150.297 70.2033 150.88 69.06L153.54 70.6C152.887 71.8133 152.175 73.0033 151.405 74.17C150.635 75.3367 149.83 76.3983 148.99 77.355ZM150.005 88.695L147.205 86.315C148.978 85.0083 150.483 83.6433 151.72 82.22C152.957 80.7967 153.96 79.14 154.73 77.25C155.5 75.36 156.072 73.1083 156.445 70.495C156.818 67.8817 157.028 64.7433 157.075 61.08H160.75C160.703 64.93 160.47 68.2667 160.05 71.09C159.63 73.9133 158.988 76.375 158.125 78.475C157.285 80.575 156.188 82.4417 154.835 84.075C153.505 85.7083 151.895 87.2483 150.005 88.695ZM138 66.225V62.9H142.025V57.65H145.63V62.9H149.62V66.225H138ZM175.8 88.975V58.525H205.2V88.975H201.525V87.12H179.475V83.97H201.525V61.675H179.475V88.975H175.8ZM183.22 80.12V65.35H197.78V80.12H186.72V77.075H194.28V68.43H186.72V80.12H183.22ZM229.14 89.15V83.2H222.665V80.12H229.14V66.575H219.13V63.425H229.14V57.65H232.815V63.425H243.28V66.575H232.815V80.12H238.94V83.2H232.815V89.15H229.14ZM213.67 89.15V66.645H217.275V89.15H213.67ZM211.255 77.32L209.785 73.12C210.858 71.65 211.792 70.11 212.585 68.5C213.402 66.89 214.113 65.1867 214.72 63.39C215.327 61.57 215.828 59.61 216.225 57.51L219.725 58.14C219.352 60.3567 218.85 62.4567 218.22 64.44C217.59 66.4 216.867 68.185 216.05 69.795L216.015 68.99C215.758 69.69 215.443 70.4133 215.07 71.16C214.72 71.9067 214.323 72.665 213.88 73.435C213.46 74.1817 213.017 74.8933 212.55 75.57C212.107 76.2233 211.675 76.8067 211.255 77.32ZM219.48 84.705L216.995 81.835C219.492 79.2217 221.638 76.5733 223.435 73.89C225.255 71.1833 226.702 68.465 227.775 65.735L230.26 67.065C229.513 69.1883 228.615 71.2417 227.565 73.225C226.515 75.2083 225.325 77.145 223.995 79.035C222.665 80.925 221.16 82.815 219.48 84.705ZM241.915 84.67C240.352 82.78 238.928 80.8783 237.645 78.965C236.385 77.0517 235.253 75.1033 234.25 73.12C233.27 71.1133 232.418 69.0483 231.695 66.925L234.32 65.63C235.3 68.2667 236.595 70.88 238.205 73.47C239.838 76.06 241.775 78.615 244.015 81.135L241.915 84.67ZM261.795 88.975L260.43 85.825C262.227 85.195 263.72 84.4367 264.91 83.55C266.1 82.6633 266.987 81.66 267.57 80.54C268.177 79.3967 268.48 78.125 268.48 76.725V71.72H265.68V79.35H262.425V68.92H268.48V66.82H264.98V63.95H275.62V66.82H272.05V68.92H278.28V79.35H265.68V76.62H274.85V71.72H272.05V76.725C272.05 77.915 271.793 79.1167 271.28 80.33C270.79 81.5433 270.09 82.6983 269.18 83.795C268.27 84.8917 267.185 85.8833 265.925 86.77C264.688 87.68 263.312 88.415 261.795 88.975ZM249.125 87.715L246.675 87.085C247.025 85.5683 247.317 84.075 247.55 82.605C247.783 81.135 247.958 79.6067 248.075 78.02L250.42 78.335C250.327 79.9217 250.163 81.5083 249.93 83.095C249.72 84.6817 249.452 86.2217 249.125 87.715ZM251.33 86.875C251.283 85.5217 251.213 84.1683 251.12 82.815C251.027 81.4383 250.922 80.0033 250.805 78.51L252.87 78.195C253.033 79.665 253.162 81.1 253.255 82.5C253.372 83.8767 253.453 85.2417 253.5 86.595L251.33 86.875ZM254.27 85.16C254.177 84.0633 254.048 82.9667 253.885 81.87C253.745 80.75 253.582 79.5833 253.395 78.37L255.425 78.02C255.635 79.21 255.822 80.3767 255.985 81.52C256.148 82.64 256.277 83.7483 256.37 84.845L254.27 85.16ZM257 83.41C256.883 82.5467 256.732 81.6833 256.545 80.82C256.358 79.9567 256.16 79.07 255.95 78.16L257.875 77.81C258.085 78.6967 258.283 79.5833 258.47 80.47C258.657 81.3333 258.808 82.1967 258.925 83.06L257 83.41ZM258.225 88.87C257.852 88.87 257.338 88.8467 256.685 88.8C256.032 88.7767 255.343 88.7183 254.62 88.625L254.48 85.475C254.783 85.5217 255.122 85.5683 255.495 85.615C255.892 85.6383 256.253 85.6617 256.58 85.685C256.93 85.7083 257.187 85.72 257.35 85.72C257.56 85.72 257.723 85.6733 257.84 85.58C257.98 85.4633 258.073 85.1483 258.12 84.635C258.19 84.1217 258.237 83.2817 258.26 82.115C258.283 80.9483 258.295 79.3033 258.295 77.18H248.18V58.525H261.725V61.5H258.12V74.17H254.62V61.5H251.82V63.88H261.2V66.575H251.82V68.92H261.2V71.65H251.82V74.17H261.375V76.97C261.375 79.5833 261.317 81.6833 261.2 83.27C261.107 84.8567 260.943 86.0467 260.71 86.84C260.477 87.6567 260.15 88.1933 259.73 88.45C259.333 88.73 258.832 88.87 258.225 88.87ZM278.805 88.975C276.868 88.2283 275.153 87.2133 273.66 85.93C272.19 84.6233 271.035 83.1767 270.195 81.59C269.378 80.0033 268.97 78.4167 268.97 76.83H272.05C272.05 78.1833 272.318 79.42 272.855 80.54C273.415 81.66 274.278 82.6633 275.445 83.55C276.635 84.4133 278.152 85.1717 279.995 85.825L278.805 88.975ZM261.9 68.115L260.395 65.105C261.538 64.2883 262.577 63.4833 263.51 62.69C264.443 61.8967 265.33 61.0683 266.17 60.205C267.033 59.3183 267.897 58.35 268.76 57.3H271.84C272.703 58.3267 273.555 59.2717 274.395 60.135C275.235 60.9983 276.11 61.8267 277.02 62.62C277.93 63.4133 278.933 64.2183 280.03 65.035L278.525 68.115C276.915 66.9483 275.445 65.7117 274.115 64.405C272.785 63.0983 271.513 61.6283 270.3 59.995C269.063 61.6283 267.768 63.0983 266.415 64.405C265.062 65.7117 263.557 66.9483 261.9 68.115ZM297.32 88.625C296.667 88.625 295.873 88.6017 294.94 88.555C294.03 88.5317 292.957 88.4967 291.72 88.45L291.58 85.23C292.747 85.2767 293.75 85.3117 294.59 85.335C295.43 85.3583 296.107 85.37 296.62 85.37C297.18 85.37 297.577 85.3467 297.81 85.3C298.067 85.23 298.218 85.0667 298.265 84.81C298.335 84.5533 298.37 84.1333 298.37 83.55V73.82H283.775V70.53H315.625V73.82H302.22V83.55C302.22 84.6933 302.162 85.6033 302.045 86.28C301.952 86.98 301.742 87.4933 301.415 87.82C301.112 88.1467 300.633 88.3567 299.98 88.45C299.327 88.5667 298.44 88.625 297.32 88.625ZM303.445 73.505C301.532 72.1983 299.583 70.915 297.6 69.655C295.617 68.3717 293.552 67.1233 291.405 65.91L293.47 63.18C295.71 64.4633 297.81 65.7467 299.77 67.03C301.753 68.3133 303.632 69.5967 305.405 70.88L303.445 73.505ZM308.03 81.52L305.615 78.895C307.015 77.8217 308.322 76.7017 309.535 75.535C310.772 74.3683 311.938 73.1083 313.035 71.755L315.625 73.82C314.552 75.1967 313.385 76.5267 312.125 77.81C310.888 79.0933 309.523 80.33 308.03 81.52ZM288.325 61.85V58.7H311.6V61.85H288.325ZM300.575 70.495L298.545 68.08C300.598 66.7967 302.5 65.4783 304.25 64.125C306 62.7483 307.692 61.2433 309.325 59.61L311.6 61.85C309.92 63.5067 308.182 65.035 306.385 66.435C304.612 67.835 302.675 69.1883 300.575 70.495ZM347.72 88.625C347.23 88.625 346.553 88.6133 345.69 88.59C344.827 88.5667 343.917 88.5317 342.96 88.485C342.003 88.4383 341.117 88.3917 340.3 88.345L340.125 85.055C340.872 85.1017 341.63 85.1483 342.4 85.195C343.17 85.2417 343.87 85.2767 344.5 85.3C345.153 85.3 345.678 85.3 346.075 85.3C346.308 85.3 346.507 85.1717 346.67 84.915C346.857 84.6583 347.02 84.1567 347.16 83.41C347.323 82.64 347.463 81.4967 347.58 79.98C347.72 78.44 347.837 76.4217 347.93 73.925C348.047 71.405 348.152 68.255 348.245 64.475H338.13V61.22H351.955C351.885 65.5367 351.792 69.2233 351.675 72.28C351.582 75.3133 351.465 77.8333 351.325 79.84C351.185 81.8467 351.01 83.445 350.8 84.635C350.59 85.825 350.333 86.7 350.03 87.26C349.75 87.8433 349.423 88.2167 349.05 88.38C348.677 88.5433 348.233 88.625 347.72 88.625ZM322.8 87.435L319.755 86.91C320.082 85.3233 320.35 83.7133 320.56 82.08C320.793 80.4233 320.957 78.7783 321.05 77.145L324.095 77.425C324.002 79.105 323.838 80.785 323.605 82.465C323.395 84.145 323.127 85.8017 322.8 87.435ZM325.46 89.15V74.52H329.135V89.15H325.46ZM331.305 86.28C331.258 84.6933 331.153 83.1183 330.99 81.555C330.85 79.9917 330.663 78.5683 330.43 77.285L333.475 76.865C333.732 78.1483 333.93 79.595 334.07 81.205C334.233 82.815 334.35 84.4133 334.42 86L331.305 86.28ZM320.175 75.85L320.07 72.805L333.195 72.105L333.23 75.045L320.175 75.85ZM324.655 71.58C324.235 70.88 323.757 70.11 323.22 69.27C322.683 68.4067 322.135 67.5433 321.575 66.68C321.038 65.8167 320.525 65.0233 320.035 64.3L321.89 61.255C322.403 62.025 322.928 62.8417 323.465 63.705C324.025 64.5683 324.562 65.42 325.075 66.26C325.612 67.0767 326.078 67.835 326.475 68.535L324.655 71.58ZM325.565 75.15L323.08 73.4C324.433 71.3933 325.717 69.3867 326.93 67.38C328.143 65.35 329.287 63.25 330.36 61.08L333.09 62.55C331.947 64.7667 330.757 66.9133 329.52 68.99C328.307 71.0433 326.988 73.0967 325.565 75.15ZM331.83 76.305C331.667 75.4417 331.468 74.52 331.235 73.54C331.002 72.5367 330.757 71.545 330.5 70.565C330.243 69.585 329.987 68.6867 329.73 67.87L332.67 67.135C332.927 67.9983 333.183 68.9317 333.44 69.935C333.697 70.915 333.942 71.9067 334.175 72.91C334.408 73.9133 334.607 74.8583 334.77 75.745L331.83 76.305ZM324.97 66.575L322.485 64.755C323.138 63.5417 323.733 62.3167 324.27 61.08C324.83 59.8433 325.367 58.5833 325.88 57.3L328.82 58.595C328.237 59.9483 327.618 61.29 326.965 62.62C326.335 63.95 325.67 65.2683 324.97 66.575ZM342.26 79.42C341.63 77.8567 340.895 76.27 340.055 74.66C339.238 73.05 338.398 71.5567 337.535 70.18L340.615 68.57C341.478 69.97 342.318 71.51 343.135 73.19C343.975 74.8467 344.71 76.4683 345.34 78.055L342.26 79.42ZM335.295 72.28L332.635 69.9C333.405 68.8267 334.128 67.6017 334.805 66.225C335.505 64.8483 336.123 63.39 336.66 61.85C337.22 60.31 337.675 58.7583 338.025 57.195L341.525 57.58C341.128 59.4 340.603 61.22 339.95 63.04C339.297 64.86 338.573 66.5633 337.78 68.15C336.987 69.7367 336.158 71.1133 335.295 72.28Z" fill="white"/>
<path d="M83 2H301V28C301 33.5228 296.523 38 291 38H93C87.4772 38 83 33.5228 83 28V2Z" fill="#F4C542"/>
<path d="M100.9 26.7C102.913 25.7 104.74 24.58 106.38 23.34C108.02 22.1 109.447 20.7667 110.66 19.34C111.873 17.9 112.84 16.4 113.56 14.84L114.18 15.34H101.9V13.4H115.64V15.34C114.893 17.0733 113.847 18.7533 112.5 20.38C111.167 22.0067 109.6 23.5133 107.8 24.9C106 26.2733 104.02 27.4733 101.86 28.5L100.9 26.7ZM115.84 28.68C115.08 27.8133 114.327 27.0267 113.58 26.32C112.847 25.6133 112.087 24.9533 111.3 24.34C110.513 23.7133 109.667 23.1133 108.76 22.54L110.14 21.02C111.487 21.8867 112.74 22.8267 113.9 23.84C115.073 24.84 116.213 25.9667 117.32 27.22L115.84 28.68ZM127.84 22.88C130.213 21.8667 132.087 20.68 133.46 19.32C134.847 17.96 135.787 16.3733 136.28 14.56L138.28 15.46C137.947 16.7267 137.367 17.92 136.54 19.04C135.727 20.16 134.68 21.1933 133.4 22.14C132.133 23.0733 130.64 23.9267 128.92 24.7L127.84 22.88ZM130.22 29.14C129.327 27.4733 128.347 25.9067 127.28 24.44C126.213 22.96 125.047 21.56 123.78 20.24L125.5 19C126.833 20.3867 128.04 21.84 129.12 23.36C130.213 24.8667 131.2 26.46 132.08 28.14L130.22 29.14ZM121.32 15.46V13.56H138.28V15.46H121.32ZM148.9 28.72C148.62 28.72 148.28 28.7067 147.88 28.68C147.493 28.6533 147.093 28.62 146.68 28.58C146.267 28.54 145.887 28.5 145.54 28.46L145.68 26.58C145.973 26.62 146.287 26.66 146.62 26.7C146.967 26.7267 147.3 26.7533 147.62 26.78C147.94 26.7933 148.22 26.8 148.46 26.8C148.9 26.8 149.22 26.78 149.42 26.74C149.62 26.6867 149.74 26.56 149.78 26.36C149.833 26.1467 149.86 25.8133 149.86 25.36V11.7H152V25.6C152 26.2533 151.96 26.7867 151.88 27.2C151.8 27.6133 151.647 27.9267 151.42 28.14C151.207 28.3667 150.893 28.52 150.48 28.6C150.08 28.68 149.553 28.72 148.9 28.72ZM141.28 25.54C141.947 24.5 142.553 23.4 143.1 22.24C143.647 21.0667 144.087 19.9467 144.42 18.88L146.32 19.46C145.987 20.5667 145.54 21.7333 144.98 22.96C144.42 24.1867 143.773 25.3733 143.04 26.52L141.28 25.54ZM158.12 26.58C157.853 25.78 157.547 24.9667 157.2 24.14C156.867 23.3133 156.507 22.5067 156.12 21.72C155.733 20.92 155.333 20.1867 154.92 19.52L156.74 18.74C157.407 19.82 158.027 20.9867 158.6 22.24C159.187 23.48 159.667 24.7067 160.04 25.92L158.12 26.58ZM141.8 16.5V14.6H159.4V16.5H141.8ZM174.4 28.9C172.813 28.9 171.427 28.6133 170.24 28.04C169.067 27.48 168.16 26.6867 167.52 25.66C166.88 24.62 166.56 23.4 166.56 22C166.56 20.88 166.767 19.84 167.18 18.88C167.593 17.92 168.18 17.0867 168.94 16.38C169.713 15.6733 170.627 15.1333 171.68 14.76L171.84 15.38L162.04 15.6V13.7L178.84 13.3V15.2L176.32 15.26C175.2 15.2867 174.18 15.4667 173.26 15.8C172.34 16.12 171.547 16.5733 170.88 17.16C170.213 17.7333 169.7 18.4133 169.34 19.2C168.98 19.9867 168.8 20.8533 168.8 21.8C168.8 22.8533 169.027 23.7667 169.48 24.54C169.933 25.3 170.58 25.8933 171.42 26.32C172.26 26.7333 173.26 26.94 174.42 26.94C174.66 26.94 174.933 26.9333 175.24 26.92C175.547 26.8933 175.853 26.8667 176.16 26.84C176.48 26.8 176.753 26.76 176.98 26.72L177.22 28.68C176.953 28.72 176.653 28.7533 176.32 28.78C175.987 28.82 175.653 28.8467 175.32 28.86C174.987 28.8867 174.68 28.9 174.4 28.9ZM176.64 22.58C176.333 21.9 176.007 21.2533 175.66 20.64C175.313 20.0267 174.913 19.3933 174.46 18.74L176.1 17.82C176.553 18.4733 176.953 19.12 177.3 19.76C177.66 20.3867 178 21.0533 178.32 21.76L176.64 22.58ZM179.62 21.44C179.327 20.7467 179.007 20.0933 178.66 19.48C178.327 18.8533 177.947 18.2133 177.52 17.56L179.14 16.7C179.58 17.3533 179.973 18 180.32 18.64C180.68 19.28 181.007 19.96 181.3 20.68L179.62 21.44ZM192.78 28.4C192.447 28.4 192.02 28.3533 191.5 28.26C190.98 28.1667 190.433 28.04 189.86 27.88C189.287 27.72 188.74 27.5467 188.22 27.36L188.72 25.54C189.16 25.6867 189.607 25.8267 190.06 25.96C190.513 26.0933 190.933 26.2 191.32 26.28C191.707 26.36 192.007 26.4 192.22 26.4C192.673 26.4 193.047 26.1867 193.34 25.76C193.647 25.3333 193.88 24.68 194.04 23.8C194.2 22.9067 194.28 21.7867 194.28 20.44C194.28 19.64 194.247 19 194.18 18.52C194.127 18.0267 194.013 17.66 193.84 17.42C193.667 17.1667 193.4 17 193.04 16.92C192.68 16.84 192.2 16.8 191.6 16.8H183.1V14.96H191.4C192.307 14.96 193.06 15 193.66 15.08C194.26 15.1467 194.74 15.2867 195.1 15.5C195.46 15.7 195.733 16.0133 195.92 16.44C196.107 16.8533 196.227 17.4067 196.28 18.1C196.347 18.7933 196.38 19.6533 196.38 20.68C196.38 22.4 196.247 23.8333 195.98 24.98C195.727 26.1133 195.333 26.9667 194.8 27.54C194.267 28.1133 193.593 28.4 192.78 28.4ZM183.36 28.22C183.867 26.98 184.313 25.8267 184.7 24.76C185.1 23.6933 185.46 22.6667 185.78 21.68C186.1 20.68 186.393 19.6733 186.66 18.66C186.927 17.6333 187.173 16.5467 187.4 15.4C187.64 14.2533 187.873 12.9933 188.1 11.62L190.14 11.86C189.927 13.1933 189.7 14.44 189.46 15.6C189.233 16.7467 188.98 17.8533 188.7 18.92C188.433 19.9733 188.133 21.0267 187.8 22.08C187.467 23.12 187.093 24.1933 186.68 25.3C186.267 26.4067 185.807 27.5867 185.3 28.84L183.36 28.22ZM199.74 24.54C199.62 23.74 199.453 22.8867 199.24 21.98C199.027 21.06 198.787 20.14 198.52 19.22C198.253 18.2867 197.967 17.3933 197.66 16.54C197.367 15.6733 197.067 14.88 196.76 14.16L198.74 13.54C199.06 14.2867 199.367 15.1 199.66 15.98C199.967 16.8467 200.253 17.7467 200.52 18.68C200.787 19.6 201.027 20.52 201.24 21.44C201.453 22.36 201.627 23.2333 201.76 24.06L199.74 24.54ZM205.8 29.1L203.96 28.42L210.48 12.2L212.42 12.78L208.88 21.46L208.22 21.02C208.86 20.46 209.52 20.0267 210.2 19.72C210.88 19.4 211.54 19.24 212.18 19.24C212.687 19.24 213.12 19.3467 213.48 19.56C213.84 19.7733 214.14 20.08 214.38 20.48C214.633 20.88 214.847 21.36 215.02 21.92C215.193 22.4667 215.353 23.0867 215.5 23.78C215.62 24.3533 215.747 24.86 215.88 25.3C216.013 25.74 216.187 26.0867 216.4 26.34C216.627 26.58 216.927 26.7 217.3 26.7C217.927 26.7 218.493 26.3 219 25.5C219.507 24.7 219.973 23.4533 220.4 21.76L222.26 22.38C221.913 23.8333 221.5 25.0333 221.02 25.98C220.553 26.9133 220.007 27.6067 219.38 28.06C218.753 28.5267 218.027 28.76 217.2 28.76C216.64 28.76 216.16 28.6533 215.76 28.44C215.36 28.24 215.02 27.9467 214.74 27.56C214.46 27.16 214.22 26.6867 214.02 26.14C213.833 25.5933 213.667 24.9867 213.52 24.32C213.387 23.72 213.24 23.1933 213.08 22.74C212.933 22.2867 212.733 21.9333 212.48 21.68C212.24 21.4267 211.907 21.3 211.48 21.3C211.2 21.3 210.887 21.36 210.54 21.48C210.193 21.5867 209.847 21.7667 209.5 22.02C209.153 22.2733 208.82 22.6067 208.5 23.02C208.18 23.4333 207.9 23.94 207.66 24.54L205.8 29.1ZM225.6 28.84C226.16 27.04 226.673 25.2067 227.14 23.34C227.607 21.4733 228.02 19.58 228.38 17.66C228.74 15.7267 229.047 13.7867 229.3 11.84L231.4 11.94C231.173 13.8467 230.88 15.78 230.52 17.74C230.16 19.6867 229.74 21.6267 229.26 23.56C228.793 25.48 228.273 27.3667 227.7 29.22L225.6 28.84ZM237.9 28.8C236.7 28.8 235.66 28.66 234.78 28.38C233.9 28.1 233.213 27.7067 232.72 27.2C232.24 26.6933 232 26.0933 232 25.4C232 24.8533 232.18 24.32 232.54 23.8C232.913 23.28 233.487 22.7333 234.26 22.16L235.76 23.48C235.227 23.8 234.833 24.1 234.58 24.38C234.327 24.66 234.2 24.9333 234.2 25.2C234.2 25.5333 234.353 25.8267 234.66 26.08C234.967 26.3333 235.4 26.5333 235.96 26.68C236.52 26.8267 237.167 26.9 237.9 26.9C238.527 26.9 239.167 26.8667 239.82 26.8C240.487 26.7333 241.173 26.6333 241.88 26.5L242.12 28.4C241.387 28.5333 240.673 28.6333 239.98 28.7C239.3 28.7667 238.607 28.8 237.9 28.8ZM225.3 16.24V14.4H239.3V16.24H225.3ZM232.74 18.72C234.3 18.5733 235.833 18.46 237.34 18.38C238.847 18.2867 240.353 18.24 241.86 18.24V20.1C240.38 20.1 238.893 20.14 237.4 20.22C235.907 20.3 234.393 20.4267 232.86 20.6L232.74 18.72ZM247.4 29.1L245.56 28.42L252.08 12.2L254.02 12.78L250.48 21.46L249.82 21.02C250.46 20.46 251.12 20.0267 251.8 19.72C252.48 19.4 253.14 19.24 253.78 19.24C254.287 19.24 254.72 19.3467 255.08 19.56C255.44 19.7733 255.74 20.08 255.98 20.48C256.233 20.88 256.447 21.36 256.62 21.92C256.793 22.4667 256.953 23.0867 257.1 23.78C257.22 24.3533 257.347 24.86 257.48 25.3C257.613 25.74 257.787 26.0867 258 26.34C258.227 26.58 258.527 26.7 258.9 26.7C259.527 26.7 260.093 26.3 260.6 25.5C261.107 24.7 261.573 23.4533 262 21.76L263.86 22.38C263.513 23.8333 263.1 25.0333 262.62 25.98C262.153 26.9133 261.607 27.6067 260.98 28.06C260.353 28.5267 259.627 28.76 258.8 28.76C258.24 28.76 257.76 28.6533 257.36 28.44C256.96 28.24 256.62 27.9467 256.34 27.56C256.06 27.16 255.82 26.6867 255.62 26.14C255.433 25.5933 255.267 24.9867 255.12 24.32C254.987 23.72 254.84 23.1933 254.68 22.74C254.533 22.2867 254.333 21.9333 254.08 21.68C253.84 21.4267 253.507 21.3 253.08 21.3C252.8 21.3 252.487 21.36 252.14 21.48C251.793 21.5867 251.447 21.7667 251.1 22.02C250.753 22.2733 250.42 22.6067 250.1 23.02C249.78 23.4333 249.5 23.94 249.26 24.54L247.4 29.1ZM274.52 23.7L274.22 13.4H276.82L276.52 23.7H274.52ZM274.22 28V25.4H276.82V28H274.22Z" fill="#333333"/>
</svg>
