<svg width="750" height="253" viewBox="0 0 750 253" fill="none" xmlns="http://www.w3.org/2000/svg">
<g clip-path="url(#clip0_378_3330)">
<path d="M64.3534 73.4942C64.2324 73.9174 64.1115 74.3407 63.9906 74.764C63.8999 75.157 63.8092 75.5349 63.7185 75.8977C63.4464 77.3186 63.1894 78.9512 62.9476 80.7953C62.7057 82.6093 62.5092 84.514 62.358 86.5093C62.2069 88.4744 62.1313 90.4093 62.1313 92.314C62.1313 94.6721 62.2522 96.8488 62.4941 98.8442C62.7359 100.809 63.0685 102.638 63.4917 104.331C63.9452 105.994 64.429 107.581 64.9429 109.093L59.7278 110.68C59.2743 109.32 58.8359 107.702 58.4127 105.828C58.0197 103.953 57.6871 101.943 57.415 99.7965C57.1429 97.6198 57.0069 95.4279 57.0069 93.2209C57.0069 91.7093 57.0522 90.1977 57.1429 88.686C57.2638 87.1442 57.3848 85.6326 57.5057 84.1512C57.6266 82.6395 57.7627 81.2035 57.9138 79.843C58.0952 78.4523 58.2464 77.1977 58.3673 76.0791C58.3976 75.6558 58.4278 75.2023 58.458 74.7186C58.4883 74.2046 58.4883 73.7512 58.458 73.3581L64.3534 73.4942ZM56.2813 78.5279C59.1534 78.5279 61.8441 78.4674 64.3534 78.3465C66.8929 78.2256 69.3266 78.014 71.6545 77.7116C74.0127 77.4093 76.3557 76.9709 78.6836 76.3965L78.729 81.657C77.1569 81.9291 75.4185 82.186 73.5138 82.4279C71.6394 82.6395 69.6743 82.8209 67.6185 82.9721C65.5929 83.1233 63.5976 83.2442 61.6324 83.3349C59.6673 83.3953 57.8231 83.4256 56.0999 83.4256C55.3138 83.4256 54.422 83.4105 53.4243 83.3802C52.4569 83.35 51.4894 83.3198 50.522 83.2895C49.5848 83.2291 48.7685 83.1837 48.0731 83.1535L47.9371 77.893C48.451 77.9535 49.1917 78.0442 50.1592 78.1651C51.1266 78.2558 52.1545 78.3465 53.2429 78.4372C54.3615 78.4977 55.3743 78.5279 56.2813 78.5279ZM75.8266 85.1488C75.7359 85.4209 75.5999 85.7988 75.4185 86.2826C75.2371 86.7663 75.0557 87.2651 74.8743 87.7791C74.7231 88.293 74.6022 88.7012 74.5115 89.0035C73.6348 91.7244 72.5615 94.2186 71.2918 96.486C70.0522 98.7233 68.7069 100.688 67.2557 102.381C65.8045 104.044 64.3685 105.405 62.9476 106.463C61.4662 107.581 59.7731 108.564 57.8685 109.41C55.9638 110.227 54.0441 110.635 52.1092 110.635C51.0208 110.635 50.008 110.408 49.0708 109.955C48.1336 109.501 47.3778 108.791 46.8034 107.823C46.2592 106.826 45.9871 105.571 45.9871 104.059C45.9871 102.427 46.3197 100.824 46.9848 99.2523C47.6499 97.6802 48.572 96.1837 49.751 94.7628C50.9301 93.3419 52.3057 92.0872 53.8778 90.9988C55.4499 89.8802 57.1429 89.0035 58.9569 88.3686C60.4383 87.8244 62.0557 87.386 63.8092 87.0535C65.5929 86.7209 67.3464 86.5546 69.0697 86.5546C71.8813 86.5546 74.3906 87.0686 76.5976 88.0965C78.8348 89.1244 80.5883 90.5302 81.858 92.314C83.1278 94.0977 83.7627 96.1837 83.7627 98.5721C83.7627 100.174 83.5057 101.747 82.9918 103.288C82.4778 104.8 81.6313 106.206 80.4522 107.506C79.3034 108.806 77.7766 109.924 75.872 110.862C73.9673 111.799 71.6243 112.479 68.8429 112.902L65.8499 108.141C68.7522 107.808 71.1104 107.158 72.9243 106.191C74.7383 105.193 76.0534 103.999 76.8697 102.608C77.7162 101.217 78.1394 99.7814 78.1394 98.3C78.1394 96.9698 77.7766 95.7756 77.0511 94.7174C76.3557 93.6593 75.2976 92.8128 73.8766 92.1779C72.4859 91.5128 70.7627 91.1802 68.7069 91.1802C66.6511 91.1802 64.8069 91.407 63.1743 91.8605C61.572 92.314 60.2266 92.7977 59.1383 93.3116C57.6266 94.0372 56.2813 94.9593 55.1022 96.0779C53.9231 97.1663 53.0011 98.3151 52.3359 99.5244C51.6708 100.734 51.3383 101.852 51.3383 102.88C51.3383 103.606 51.5045 104.165 51.8371 104.558C52.1697 104.921 52.6987 105.102 53.4243 105.102C54.5127 105.102 55.7673 104.755 57.1883 104.059C58.6092 103.334 60.015 102.321 61.4057 101.021C63.0383 99.5093 64.5801 97.6953 66.0313 95.5791C67.4824 93.4628 68.6766 90.8326 69.6138 87.6884C69.7045 87.386 69.7952 86.993 69.8859 86.5093C69.9766 86.0256 70.0522 85.5419 70.1127 85.0581C70.2034 84.5442 70.2638 84.136 70.2941 83.8337L75.8266 85.1488ZM92.7871 80.2965C93.7545 80.4174 94.7824 80.5081 95.8708 80.5686C96.9894 80.5988 97.972 80.614 98.8185 80.614C100.693 80.614 102.582 80.5081 104.487 80.2965C106.422 80.0849 108.281 79.8128 110.065 79.4802C111.849 79.1174 113.466 78.7093 114.917 78.2558L115.099 83.5163C113.799 83.8488 112.242 84.1965 110.428 84.5593C108.644 84.8919 106.755 85.1791 104.759 85.4209C102.764 85.6326 100.799 85.7384 98.8638 85.7384C97.9569 85.7384 97.0348 85.7233 96.0976 85.693C95.1604 85.6628 94.1929 85.6174 93.1952 85.557L92.7871 80.2965ZM110.428 73.4942C110.246 74.25 110.005 75.2326 109.702 76.4419C109.4 77.6512 109.052 78.9209 108.659 80.2512C108.296 81.5814 107.903 82.8965 107.48 84.1965C106.815 86.3733 105.938 88.686 104.85 91.1349C103.762 93.5837 102.582 95.9721 101.313 98.3C100.043 100.628 98.758 102.699 97.458 104.513L91.9708 101.701C92.9987 100.431 94.0115 99.0256 95.0092 97.4837C96.0069 95.9419 96.9441 94.3546 97.8208 92.7221C98.6976 91.0895 99.4836 89.5174 100.179 88.0058C100.905 86.464 101.479 85.0733 101.902 83.8337C102.477 82.2314 102.975 80.4477 103.399 78.4826C103.852 76.4872 104.109 74.6128 104.17 72.8593L110.428 73.4942ZM121.039 87.5977C120.979 88.5651 120.949 89.5326 120.949 90.5C120.979 91.4372 121.009 92.4046 121.039 93.4023C121.07 94.0977 121.1 94.9895 121.13 96.0779C121.191 97.136 121.251 98.2698 121.312 99.4791C121.372 100.658 121.417 101.792 121.448 102.88C121.508 103.938 121.538 104.785 121.538 105.42C121.538 106.81 121.251 108.08 120.677 109.229C120.102 110.348 119.18 111.24 117.91 111.905C116.671 112.57 114.963 112.902 112.786 112.902C110.912 112.902 109.218 112.615 107.707 112.041C106.195 111.497 104.986 110.68 104.079 109.592C103.172 108.473 102.718 107.083 102.718 105.42C102.718 103.938 103.112 102.608 103.898 101.429C104.684 100.22 105.817 99.2826 107.299 98.6174C108.81 97.9221 110.624 97.5744 112.741 97.5744C115.401 97.5744 117.85 97.9523 120.087 98.7081C122.324 99.4337 124.335 100.371 126.118 101.52C127.902 102.669 129.429 103.817 130.699 104.966L127.66 109.819C126.844 109.093 125.907 108.277 124.849 107.37C123.821 106.463 122.657 105.616 121.357 104.83C120.087 104.044 118.696 103.394 117.185 102.88C115.703 102.366 114.101 102.109 112.378 102.109C111.078 102.109 110.035 102.366 109.249 102.88C108.463 103.394 108.07 104.059 108.07 104.876C108.07 105.722 108.402 106.402 109.067 106.916C109.763 107.43 110.73 107.687 111.97 107.687C112.998 107.687 113.814 107.521 114.418 107.188C115.023 106.826 115.446 106.327 115.688 105.692C115.93 105.027 116.051 104.286 116.051 103.47C116.051 102.774 116.021 101.792 115.96 100.522C115.9 99.2523 115.824 97.8465 115.734 96.3046C115.673 94.7628 115.613 93.2209 115.552 91.6791C115.492 90.1372 115.431 88.7767 115.371 87.5977H121.039ZM128.839 90.0012C127.963 89.2756 126.874 88.5046 125.574 87.6884C124.274 86.8721 122.929 86.1012 121.538 85.3756C120.178 84.6198 118.984 84.0151 117.956 83.5616L120.858 79.0721C121.674 79.4349 122.596 79.8884 123.624 80.4326C124.682 80.9465 125.741 81.4907 126.799 82.0651C127.887 82.6395 128.885 83.214 129.792 83.7884C130.729 84.3326 131.485 84.8163 132.059 85.2395L128.839 90.0012ZM157.681 73.8116C157.5 74.4163 157.318 75.157 157.137 76.0337C156.956 76.9105 156.82 77.5907 156.729 78.0744C156.517 79.1023 156.245 80.357 155.913 81.8384C155.61 83.3198 155.263 84.8919 154.87 86.5546C154.507 88.2174 154.129 89.8046 153.736 91.3163C153.343 92.9186 152.859 94.657 152.285 96.5314C151.71 98.3756 151.091 100.265 150.425 102.2C149.791 104.105 149.141 105.934 148.475 107.687C147.81 109.41 147.16 110.952 146.525 112.313L140.222 110.181C140.887 109.033 141.598 107.642 142.353 106.009C143.109 104.347 143.835 102.563 144.53 100.658C145.256 98.7535 145.921 96.864 146.525 94.9895C147.13 93.1151 147.644 91.3767 148.067 89.7744C148.37 88.7163 148.657 87.6279 148.929 86.5093C149.201 85.3907 149.443 84.3023 149.655 83.2442C149.866 82.186 150.048 81.2035 150.199 80.2965C150.38 79.3593 150.516 78.543 150.607 77.8477C150.698 77.0012 150.758 76.1546 150.788 75.3081C150.818 74.4616 150.803 73.7814 150.743 73.2674L157.681 73.8116ZM146.117 80.5686C147.962 80.5686 149.881 80.4779 151.877 80.2965C153.872 80.1151 155.882 79.8581 157.908 79.5256C159.934 79.193 161.944 78.8 163.939 78.3465V84.0151C162.065 84.4384 160.07 84.8012 157.953 85.1035C155.837 85.4058 153.751 85.6477 151.695 85.8291C149.639 85.9802 147.75 86.0558 146.027 86.0558C144.938 86.0558 143.956 86.0407 143.079 86.0105C142.202 85.95 141.356 85.9046 140.539 85.8744L140.403 80.2058C141.582 80.3267 142.595 80.4174 143.442 80.4779C144.288 80.5384 145.18 80.5686 146.117 80.5686ZM160.357 87.507C161.627 87.386 163.032 87.2802 164.574 87.1895C166.116 87.0988 167.613 87.0535 169.064 87.0535C170.364 87.0535 171.679 87.0837 173.009 87.1442C174.37 87.2046 175.715 87.3105 177.045 87.4616L176.909 92.9035C175.791 92.7523 174.551 92.6314 173.191 92.5407C171.86 92.4198 170.5 92.3593 169.109 92.3593C167.567 92.3593 166.071 92.4046 164.62 92.4953C163.199 92.5558 161.778 92.6767 160.357 92.8581V87.507ZM162.806 98.9349C162.624 99.5698 162.473 100.235 162.352 100.93C162.231 101.595 162.171 102.185 162.171 102.699C162.171 103.183 162.277 103.636 162.488 104.059C162.7 104.483 163.032 104.86 163.486 105.193C163.939 105.495 164.559 105.737 165.345 105.919C166.162 106.1 167.174 106.191 168.384 106.191C169.925 106.191 171.467 106.115 173.009 105.964C174.581 105.783 176.184 105.541 177.816 105.238L177.589 111.043C176.32 111.194 174.914 111.33 173.372 111.451C171.83 111.602 170.152 111.678 168.338 111.678C164.529 111.678 161.612 111.058 159.586 109.819C157.591 108.549 156.593 106.765 156.593 104.467C156.593 103.44 156.684 102.397 156.865 101.338C157.046 100.28 157.228 99.2977 157.409 98.3907L162.806 98.9349ZM204.617 73.6756C204.436 74.4919 204.285 75.2174 204.164 75.8523C204.043 76.4872 203.937 77.107 203.846 77.7116C203.725 78.3465 203.574 79.2686 203.393 80.4779C203.242 81.657 203.06 83.0023 202.849 84.514C202.667 85.9953 202.471 87.5523 202.259 89.1849C202.078 90.7872 201.896 92.3593 201.715 93.9012C201.534 95.443 201.382 96.8488 201.262 98.1186C201.171 99.3884 201.125 100.401 201.125 101.157C201.125 103.031 201.685 104.467 202.803 105.465C203.952 106.433 205.645 106.916 207.882 106.916C209.999 106.916 211.782 106.629 213.234 106.055C214.685 105.45 215.788 104.649 216.544 103.651C217.3 102.653 217.678 101.535 217.678 100.295C217.678 98.7535 217.27 97.257 216.453 95.8058C215.667 94.3244 214.518 92.8884 213.007 91.4977L219.401 90.1372C220.913 92.0419 222.016 93.8558 222.712 95.5791C223.437 97.2721 223.8 99.086 223.8 101.021C223.8 103.288 223.15 105.314 221.85 107.098C220.55 108.881 218.691 110.272 216.272 111.27C213.884 112.267 211.027 112.766 207.701 112.766C205.343 112.766 203.242 112.403 201.398 111.678C199.553 110.952 198.117 109.803 197.089 108.231C196.062 106.659 195.548 104.619 195.548 102.109C195.548 101.172 195.623 99.9326 195.774 98.3907C195.925 96.8186 196.107 95.0953 196.318 93.2209C196.56 91.3163 196.802 89.3965 197.044 87.4616C197.286 85.4965 197.498 83.6372 197.679 81.8837C197.891 80.1302 198.057 78.6186 198.178 77.3488C198.238 76.2907 198.268 75.4895 198.268 74.9453C198.299 74.3709 198.284 73.8267 198.223 73.3128L204.617 73.6756ZM188.428 79.2988C189.788 79.7221 191.27 80.0849 192.872 80.3872C194.474 80.6593 196.122 80.8709 197.815 81.0221C199.508 81.143 201.11 81.2035 202.622 81.2035C204.406 81.2035 206.068 81.143 207.61 81.0221C209.152 80.9012 210.498 80.75 211.646 80.5686L211.465 85.9651C210.105 86.086 208.744 86.1919 207.384 86.2826C206.023 86.3733 204.391 86.4186 202.486 86.4186C200.944 86.4186 199.342 86.343 197.679 86.1919C196.016 86.0105 194.368 85.7837 192.736 85.5116C191.103 85.2093 189.577 84.8767 188.156 84.514L188.428 79.2988ZM187.475 90.5453C189.108 91.0895 190.756 91.5128 192.418 91.8151C194.112 92.1174 195.774 92.3291 197.407 92.45C199.07 92.5407 200.657 92.586 202.168 92.586C203.559 92.586 205.056 92.5407 206.658 92.45C208.291 92.3593 209.832 92.2233 211.284 92.0419L211.148 97.4384C209.878 97.5593 208.578 97.6651 207.248 97.7558C205.917 97.8163 204.542 97.8465 203.121 97.8465C200.098 97.8465 197.195 97.6953 194.414 97.393C191.632 97.0605 189.214 96.607 187.158 96.0326L187.475 90.5453ZM232.235 89.3663H274.228V95.307H232.235V89.3663ZM289.057 84.2419H320.529V88.5046H289.057V84.2419ZM289.374 97.4384H314.271V101.701H289.374V97.4384ZM295.179 81.2488H300.303V91.543H308.648V81.2488H313.953V95.6244H295.179V81.2488ZM312.91 97.4384H313.953L314.906 97.257L318.307 98.9802C317.098 101.429 315.51 103.53 313.545 105.284C311.61 107.007 309.388 108.458 306.879 109.637C304.4 110.816 301.709 111.753 298.807 112.449C295.905 113.174 292.866 113.749 289.692 114.172C289.48 113.477 289.148 112.676 288.694 111.769C288.271 110.892 287.848 110.166 287.424 109.592C290.296 109.35 293.063 108.957 295.723 108.413C298.414 107.869 300.878 107.143 303.115 106.236C305.352 105.329 307.302 104.21 308.965 102.88C310.658 101.52 311.973 99.9477 312.91 98.164V97.4384ZM298.716 100.794C300.077 102.487 301.891 103.938 304.158 105.148C306.425 106.327 309.041 107.279 312.003 108.005C314.966 108.73 318.201 109.244 321.708 109.547C321.315 109.909 320.907 110.363 320.484 110.907C320.091 111.481 319.713 112.056 319.35 112.63C319.017 113.205 318.73 113.734 318.488 114.217C314.83 113.734 311.474 113.008 308.421 112.041C305.367 111.073 302.631 109.803 300.213 108.231C297.794 106.629 295.738 104.709 294.045 102.472L298.716 100.794ZM298.943 71.4535H304.612V78.3012H298.943V71.4535ZM285.338 75.5802H320.801V80.4326H285.338V75.5802ZM282.708 75.5802H287.923V88.3233C287.923 90.1977 287.863 92.2384 287.742 94.4453C287.621 96.6523 287.394 98.9198 287.062 101.248C286.729 103.576 286.23 105.843 285.565 108.05C284.93 110.227 284.099 112.192 283.071 113.945C282.769 113.643 282.345 113.28 281.801 112.857C281.257 112.464 280.698 112.086 280.123 111.723C279.549 111.36 279.05 111.103 278.627 110.952C279.564 109.35 280.305 107.581 280.849 105.647C281.393 103.712 281.801 101.747 282.073 99.7512C282.345 97.7256 282.512 95.7302 282.572 93.7651C282.663 91.8 282.708 89.986 282.708 88.3233V75.5802ZM336.401 113.129C335.494 111.98 334.481 110.816 333.363 109.637C332.244 108.458 331.11 107.309 329.962 106.191C328.813 105.042 327.709 104.014 326.651 103.107L331.367 99.0256C332.456 99.9023 333.62 100.945 334.859 102.155C336.099 103.334 337.278 104.528 338.396 105.737C339.545 106.947 340.498 108.02 341.253 108.957L336.401 113.129ZM384.471 83.1081H404.651V87.0081H384.471V83.1081ZM384.471 89.7291H404.651V93.6744H384.471V89.7291ZM402.202 75.807H407.871V107.415C407.871 108.987 407.689 110.197 407.327 111.043C406.964 111.92 406.269 112.6 405.241 113.084C404.243 113.537 402.988 113.824 401.477 113.945C399.965 114.066 398.121 114.112 395.944 114.081C395.853 113.537 395.702 112.917 395.491 112.222C395.309 111.527 395.082 110.831 394.81 110.136C394.569 109.471 394.312 108.881 394.039 108.367C394.977 108.428 395.914 108.473 396.851 108.503C397.819 108.503 398.665 108.503 399.391 108.503C400.146 108.473 400.691 108.458 401.023 108.458C401.446 108.458 401.749 108.383 401.93 108.231C402.112 108.08 402.202 107.793 402.202 107.37V75.807ZM374.267 97.257C376.746 97.136 379.649 97 382.974 96.8488C386.33 96.6977 389.882 96.5163 393.631 96.3046C397.41 96.093 401.144 95.8814 404.832 95.6698L404.787 100.295C401.28 100.598 397.743 100.9 394.175 101.202C390.608 101.474 387.177 101.731 383.881 101.973C380.616 102.215 377.669 102.427 375.038 102.608L374.267 97.257ZM410.138 85.1035L415.444 87.643C412.632 91.9965 409.246 95.8512 405.286 99.207C401.356 102.533 397.017 105.405 392.271 107.823C387.524 110.212 382.536 112.177 377.306 113.719C377.064 113.265 376.716 112.721 376.263 112.086C375.809 111.481 375.341 110.877 374.857 110.272C374.403 109.667 373.98 109.153 373.587 108.73C378.878 107.4 383.836 105.662 388.462 103.515C393.087 101.338 397.244 98.7233 400.932 95.6698C404.621 92.586 407.689 89.064 410.138 85.1035ZM391.863 71.3174L398.574 72.043C397.879 73.4337 397.123 74.7942 396.307 76.1244C395.521 77.4546 394.795 78.5733 394.13 79.4802L389.278 78.4826C389.792 77.4244 390.291 76.2453 390.774 74.9453C391.258 73.6151 391.621 72.4058 391.863 71.3174ZM380.979 75.807H404.016V80.4779H386.466V99.7058H380.979V75.807ZM429.185 71.6349L434.355 73.2221C433.478 75.7616 432.42 78.3314 431.18 80.9314C429.971 83.5012 428.641 85.95 427.189 88.2779C425.769 90.5756 424.287 92.6012 422.745 94.3546C422.564 93.9012 422.292 93.3267 421.929 92.6314C421.596 91.9058 421.234 91.1802 420.841 90.4546C420.448 89.7291 420.085 89.1395 419.752 88.686C421.052 87.2953 422.277 85.693 423.425 83.8791C424.605 82.0349 425.678 80.0698 426.645 77.9837C427.643 75.8977 428.489 73.7814 429.185 71.6349ZM425.512 84.1965L430.681 79.0267V79.0721V113.991H425.512V84.1965ZM444.83 71.6802H450.136V113.719H444.83V71.6802ZM433.312 79.5709H462.698V84.7407H433.312V79.5709ZM438.844 101.565H456.258V106.417H438.844V101.565ZM452.086 82.4733C452.872 85.0128 453.885 87.5826 455.124 90.1826C456.364 92.7523 457.739 95.1558 459.251 97.393C460.763 99.6 462.335 101.474 463.967 103.016C463.332 103.47 462.607 104.105 461.791 104.921C461.005 105.737 460.37 106.508 459.886 107.234C458.253 105.42 456.696 103.243 455.215 100.703C453.734 98.164 452.403 95.4279 451.224 92.4953C450.045 89.5326 449.032 86.5546 448.186 83.5616L452.086 82.4733ZM443.152 82.0198L447.098 83.1081C446.251 86.2523 445.208 89.336 443.969 92.3593C442.729 95.3826 441.338 98.1791 439.796 100.749C438.255 103.319 436.592 105.526 434.808 107.37C434.506 106.947 434.128 106.478 433.674 105.964C433.221 105.42 432.737 104.906 432.223 104.422C431.739 103.938 431.301 103.545 430.908 103.243C432.662 101.701 434.309 99.7965 435.851 97.5291C437.423 95.2314 438.829 92.7523 440.069 90.0919C441.338 87.4012 442.366 84.7105 443.152 82.0198ZM493.127 78.936C492.824 81.2337 492.431 83.6826 491.948 86.2826C491.464 88.8826 490.814 91.5128 489.998 94.1733C489.121 97.2267 488.093 99.857 486.914 102.064C485.735 104.271 484.435 105.979 483.014 107.188C481.623 108.367 480.096 108.957 478.434 108.957C476.771 108.957 475.229 108.398 473.808 107.279C472.417 106.13 471.299 104.558 470.452 102.563C469.636 100.567 469.228 98.3 469.228 95.7605C469.228 93.1302 469.757 90.6512 470.815 88.3233C471.873 85.9953 473.339 83.9395 475.214 82.1558C477.118 80.3419 479.325 78.9209 481.835 77.893C484.374 76.8651 487.11 76.3512 490.043 76.3512C492.855 76.3512 495.379 76.8046 497.616 77.7116C499.884 78.6186 501.818 79.8733 503.421 81.4756C505.023 83.0779 506.248 84.9523 507.094 87.0988C507.941 89.2453 508.364 91.5581 508.364 94.0372C508.364 97.2116 507.714 100.053 506.414 102.563C505.114 105.072 503.179 107.143 500.609 108.776C498.07 110.408 494.895 111.527 491.086 112.131L487.685 106.735C488.562 106.644 489.332 106.538 489.998 106.417C490.663 106.297 491.298 106.16 491.902 106.009C493.353 105.647 494.699 105.133 495.938 104.467C497.208 103.772 498.312 102.926 499.249 101.928C500.186 100.9 500.912 99.7058 501.425 98.3453C501.97 96.9849 502.242 95.4884 502.242 93.8558C502.242 92.0721 501.97 90.4395 501.425 88.9581C500.881 87.4767 500.08 86.1919 499.022 85.1035C497.964 83.9849 496.679 83.1384 495.167 82.564C493.656 81.9593 491.917 81.657 489.952 81.657C487.534 81.657 485.402 82.0953 483.558 82.9721C481.714 83.8186 480.157 84.9221 478.887 86.2826C477.617 87.643 476.65 89.1093 475.985 90.6814C475.35 92.2535 475.032 93.75 475.032 95.1709C475.032 96.6826 475.214 97.9523 475.577 98.9802C475.939 99.9779 476.378 100.734 476.892 101.248C477.436 101.731 478.01 101.973 478.615 101.973C479.25 101.973 479.87 101.656 480.474 101.021C481.109 100.356 481.729 99.3581 482.334 98.0279C482.938 96.6977 483.543 95.0198 484.148 92.9942C484.843 90.8174 485.432 88.4895 485.916 86.0105C486.4 83.5314 486.748 81.1128 486.959 78.7546L493.127 78.936ZM554.257 81.793C554.015 82.2163 553.758 82.7302 553.486 83.3349C553.214 83.9093 552.972 84.4837 552.76 85.0581C552.367 86.3884 551.808 87.9151 551.082 89.6384C550.387 91.3314 549.51 93.1 548.452 94.9442C547.424 96.7581 546.23 98.5116 544.87 100.205C542.693 102.805 540.153 105.163 537.251 107.279C534.379 109.395 530.812 111.3 526.549 112.993L521.198 108.186C524.281 107.279 526.942 106.236 529.179 105.057C531.416 103.878 533.366 102.623 535.029 101.293C536.692 99.9326 538.173 98.4965 539.473 96.9849C540.531 95.8058 541.499 94.4756 542.375 92.9942C543.252 91.4826 544.008 89.986 544.643 88.5046C545.278 87.0233 545.701 85.7233 545.913 84.6047H530.63L532.716 79.4802C533.139 79.4802 533.789 79.4802 534.666 79.4802C535.573 79.4802 536.586 79.4802 537.705 79.4802C538.853 79.4802 539.972 79.4802 541.06 79.4802C542.179 79.4802 543.146 79.4802 543.963 79.4802C544.809 79.4802 545.384 79.4802 545.686 79.4802C546.381 79.4802 547.077 79.4349 547.772 79.3442C548.498 79.2535 549.117 79.1174 549.631 78.936L554.257 81.793ZM539.473 74.6279C538.929 75.414 538.4 76.2605 537.886 77.1674C537.372 78.0744 536.979 78.7698 536.707 79.2535C535.679 81.0674 534.409 82.957 532.898 84.9221C531.416 86.857 529.723 88.7465 527.819 90.5907C525.914 92.4046 523.888 94.0674 521.742 95.5791L516.617 91.8151C518.613 90.5756 520.366 89.3058 521.878 88.0058C523.42 86.7058 524.75 85.4209 525.869 84.1512C526.987 82.8512 527.939 81.6116 528.725 80.4326C529.542 79.2233 530.237 78.15 530.812 77.2128C531.174 76.6384 531.552 75.8977 531.945 74.9907C532.338 74.0535 532.641 73.207 532.852 72.4512L539.473 74.6279ZM573.439 103.969C573.439 103.334 573.439 102.427 573.439 101.248C573.439 100.038 573.439 98.6779 573.439 97.1663C573.439 95.6244 573.439 94.0221 573.439 92.3593C573.439 90.6663 573.439 89.0186 573.439 87.4163C573.439 85.7837 573.439 84.2721 573.439 82.8814C573.439 81.4907 573.439 80.3267 573.439 79.3895C573.439 78.9058 573.424 78.3465 573.394 77.7116C573.394 77.0767 573.364 76.4419 573.303 75.807C573.243 75.1721 573.167 74.6279 573.077 74.1744H579.834C579.743 74.8698 579.652 75.7314 579.562 76.7593C579.471 77.757 579.425 78.6337 579.425 79.3895C579.425 80.2965 579.425 81.3849 579.425 82.6546C579.425 83.8942 579.425 85.2395 579.425 86.6907C579.425 88.1116 579.425 89.5628 579.425 91.0442C579.425 92.5256 579.425 93.9767 579.425 95.3977C579.425 96.8186 579.425 98.1186 579.425 99.2977C579.425 100.477 579.425 101.505 579.425 102.381C579.425 103.288 579.562 104.029 579.834 104.603C580.106 105.178 580.65 105.586 581.466 105.828C582.313 106.07 583.567 106.191 585.23 106.191C586.832 106.191 588.435 106.13 590.037 106.009C591.67 105.858 593.287 105.677 594.889 105.465C596.492 105.223 598.034 104.951 599.515 104.649L599.334 110.816C598.094 110.998 596.688 111.164 595.116 111.315C593.544 111.466 591.912 111.587 590.219 111.678C588.556 111.769 586.908 111.814 585.275 111.814C582.706 111.814 580.635 111.648 579.063 111.315C577.491 111.013 576.296 110.544 575.48 109.909C574.694 109.274 574.15 108.458 573.848 107.46C573.575 106.463 573.439 105.299 573.439 103.969ZM602.009 84.0151C601.798 84.3477 601.541 84.7558 601.238 85.2395C600.966 85.693 600.724 86.1163 600.513 86.5093C600.029 87.4465 599.409 88.5046 598.653 89.6837C597.928 90.8628 597.142 92.0721 596.295 93.3116C595.449 94.5512 594.572 95.7302 593.665 96.8488C592.788 97.9674 591.942 98.9198 591.125 99.7058L586.137 96.7581C587.135 95.8814 588.102 94.8837 589.039 93.7651C590.007 92.6163 590.869 91.4977 591.624 90.4093C592.38 89.2907 592.97 88.3535 593.393 87.5977C592.97 87.6581 592.229 87.8093 591.171 88.0512C590.143 88.2628 588.873 88.5198 587.362 88.8221C585.85 89.1244 584.202 89.457 582.419 89.8198C580.635 90.1523 578.836 90.5 577.022 90.8628C575.208 91.2256 573.455 91.5884 571.762 91.9512C570.069 92.2837 568.542 92.6012 567.181 92.9035C565.821 93.1756 564.732 93.4023 563.916 93.5837L562.828 87.643C563.705 87.5221 564.853 87.3558 566.274 87.1442C567.695 86.9023 569.282 86.6302 571.036 86.3279C572.789 85.9953 574.619 85.6477 576.523 85.2849C578.428 84.9221 580.317 84.5593 582.192 84.1965C584.066 83.8337 585.82 83.5012 587.452 83.1988C589.085 82.8663 590.506 82.5791 591.715 82.3372C592.924 82.0651 593.831 81.8535 594.436 81.7023C595.071 81.5512 595.66 81.4 596.205 81.2488C596.749 81.0674 597.232 80.8709 597.656 80.6593L602.009 84.0151ZM629.853 73.6302C629.702 74.4465 629.46 75.5046 629.128 76.8046C628.795 78.1046 628.312 79.5709 627.677 81.2035C627.193 82.3221 626.634 83.486 625.999 84.6953C625.394 85.8744 624.774 86.9326 624.139 87.8698C624.532 87.6884 625.031 87.5372 625.636 87.4163C626.241 87.2651 626.86 87.1593 627.495 87.0988C628.16 87.0081 628.75 86.9628 629.264 86.9628C631.168 86.9628 632.741 87.507 633.98 88.5953C635.25 89.6837 635.885 91.3012 635.885 93.4477C635.885 94.0523 635.885 94.793 635.885 95.6698C635.915 96.5465 635.945 97.4686 635.975 98.436C636.006 99.3733 636.036 100.295 636.066 101.202C636.096 102.109 636.112 102.926 636.112 103.651H630.67C630.73 103.137 630.76 102.533 630.76 101.837C630.791 101.112 630.806 100.356 630.806 99.5698C630.836 98.7837 630.851 98.0279 630.851 97.3023C630.881 96.5465 630.896 95.8663 630.896 95.2616C630.896 93.8105 630.503 92.8128 629.717 92.2686C628.962 91.6942 628.115 91.407 627.178 91.407C625.908 91.407 624.623 91.7244 623.323 92.3593C622.053 92.964 620.98 93.6895 620.103 94.536C619.438 95.2012 618.758 95.9419 618.063 96.7581C617.398 97.5744 616.672 98.4965 615.886 99.5244L611.034 95.8965C612.999 94.0826 614.692 92.3291 616.113 90.636C617.564 88.943 618.788 87.2651 619.786 85.6023C620.784 83.9395 621.6 82.2767 622.235 80.614C622.688 79.4046 623.051 78.15 623.323 76.85C623.625 75.5198 623.807 74.2802 623.867 73.1314L629.853 73.6302ZM612.802 77.8023C613.951 77.9837 615.281 78.1198 616.793 78.2105C618.305 78.3012 619.635 78.3465 620.784 78.3465C622.779 78.3465 624.956 78.3012 627.314 78.2105C629.702 78.1198 632.121 77.9686 634.57 77.757C637.018 77.5151 639.346 77.2128 641.553 76.85L641.508 82.1105C639.906 82.3221 638.167 82.5186 636.293 82.7C634.449 82.8512 632.559 82.9872 630.624 83.1081C628.72 83.1988 626.891 83.2744 625.137 83.3349C623.384 83.3651 621.827 83.3802 620.466 83.3802C619.862 83.3802 619.106 83.3802 618.199 83.3802C617.322 83.35 616.415 83.3198 615.478 83.2895C614.541 83.2291 613.649 83.1686 612.802 83.1081V77.8023ZM648.718 90.6814C648.235 90.8326 647.66 91.0291 646.995 91.2709C646.36 91.4826 645.71 91.7093 645.045 91.9512C644.41 92.1628 643.836 92.3744 643.322 92.586C641.871 93.1605 640.148 93.8558 638.152 94.6721C636.187 95.4884 634.131 96.4407 631.985 97.5291C630.624 98.2547 629.475 98.9651 628.538 99.6605C627.601 100.356 626.891 101.066 626.407 101.792C625.923 102.487 625.681 103.258 625.681 104.105C625.681 104.74 625.817 105.269 626.089 105.692C626.362 106.085 626.77 106.402 627.314 106.644C627.858 106.886 628.538 107.052 629.355 107.143C630.171 107.234 631.138 107.279 632.257 107.279C634.192 107.279 636.323 107.173 638.651 106.962C640.979 106.72 643.141 106.402 645.136 106.009L644.955 111.859C643.987 111.98 642.763 112.101 641.281 112.222C639.8 112.373 638.258 112.479 636.656 112.54C635.084 112.6 633.572 112.63 632.121 112.63C629.763 112.63 627.646 112.403 625.772 111.95C623.898 111.497 622.416 110.726 621.328 109.637C620.27 108.519 619.741 106.992 619.741 105.057C619.741 103.485 620.088 102.064 620.784 100.794C621.509 99.5244 622.462 98.3756 623.641 97.3477C624.82 96.3198 626.105 95.3977 627.495 94.5814C628.916 93.7349 630.307 92.964 631.667 92.2686C633.058 91.543 634.313 90.9233 635.431 90.4093C636.55 89.8953 637.593 89.4419 638.56 89.0488C639.558 88.6256 640.51 88.2023 641.417 87.7791C642.294 87.386 643.141 87.0081 643.957 86.6453C644.773 86.2523 645.605 85.8442 646.451 85.4209L648.718 90.6814Z" fill="#333333"/>
<rect x="41.8604" y="129.977" width="262.907" height="63" rx="6.97674" fill="#F4C542"/>
<path d="M62.1628 141.34H77.2186V146.237H67.5593V170.318H62.1628V141.34ZM93.4989 154.808V157.62H112.5V154.808H93.4989ZM93.4989 162.064V164.921H112.5V162.064H93.4989ZM93.4989 147.598V150.409H112.5V147.598H93.4989ZM88.2384 142.881H118.033V169.637H88.2384V142.881ZM105.063 166.009H110.641V176.848C110.641 177.573 110.747 178.042 110.958 178.254C111.2 178.435 111.744 178.526 112.591 178.526C112.772 178.526 113.059 178.526 113.452 178.526C113.876 178.526 114.344 178.526 114.858 178.526C115.372 178.526 115.856 178.526 116.309 178.526C116.763 178.526 117.11 178.526 117.352 178.526C117.866 178.526 118.259 178.39 118.531 178.118C118.804 177.845 119 177.271 119.121 176.394C119.242 175.518 119.333 174.187 119.393 172.404C119.786 172.706 120.27 173.008 120.844 173.311C121.449 173.613 122.069 173.87 122.704 174.081C123.369 174.293 123.928 174.474 124.381 174.626C124.2 177.014 123.883 178.858 123.429 180.158C122.976 181.488 122.31 182.411 121.434 182.924C120.557 183.438 119.363 183.695 117.851 183.695C117.609 183.695 117.277 183.695 116.854 183.695C116.46 183.695 116.022 183.695 115.538 183.695C115.055 183.695 114.556 183.695 114.042 183.695C113.558 183.695 113.12 183.695 112.727 183.695C112.334 183.695 112.031 183.695 111.82 183.695C110.036 183.695 108.645 183.484 107.648 183.061C106.68 182.637 106 181.927 105.607 180.929C105.244 179.931 105.063 178.586 105.063 176.893V166.009ZM93.9977 167.869H99.8023C99.6209 169.924 99.2884 171.814 98.8047 173.537C98.3512 175.23 97.5954 176.757 96.5372 178.118C95.5093 179.478 94.043 180.657 92.1384 181.655C90.2337 182.683 87.7547 183.544 84.7012 184.24C84.55 183.726 84.293 183.166 83.9302 182.562C83.5977 181.987 83.2198 181.398 82.7965 180.793C82.4035 180.219 82.0105 179.75 81.6175 179.387C84.2477 178.904 86.3488 178.314 87.9209 177.619C89.493 176.893 90.6872 176.062 91.5035 175.124C92.35 174.187 92.9395 173.129 93.2721 171.95C93.6047 170.741 93.8465 169.38 93.9977 167.869ZM141.614 143.199C142.884 143.441 144.335 143.683 145.967 143.924C147.6 144.136 149.278 144.348 151.001 144.559C152.755 144.771 154.417 144.952 155.99 145.104C157.592 145.224 158.967 145.33 160.116 145.421L159.391 150.727C158.212 150.636 156.821 150.515 155.219 150.364C153.647 150.183 151.999 149.986 150.276 149.774C148.583 149.563 146.905 149.351 145.242 149.14C143.579 148.928 142.083 148.701 140.752 148.459L141.614 143.199ZM161.704 157.62C161.099 158.043 160.555 158.451 160.071 158.844C159.587 159.207 159.149 159.57 158.756 159.933C158.212 160.356 157.577 160.9 156.851 161.565C156.156 162.23 155.43 162.911 154.674 163.606C153.919 164.271 153.238 164.891 152.634 165.465C152.059 166.04 151.636 166.478 151.364 166.78C151.545 166.75 151.817 166.765 152.18 166.826C152.543 166.886 152.845 166.977 153.087 167.098C153.752 167.309 154.297 167.672 154.72 168.186C155.143 168.67 155.506 169.335 155.808 170.181C155.959 170.574 156.095 171.028 156.216 171.542C156.367 172.026 156.519 172.509 156.67 172.993C156.821 173.477 156.972 173.915 157.123 174.308C157.335 175.004 157.698 175.533 158.212 175.895C158.726 176.258 159.421 176.44 160.298 176.44C161.477 176.44 162.595 176.409 163.654 176.349C164.712 176.258 165.709 176.152 166.647 176.031C167.584 175.911 168.43 175.774 169.186 175.623L168.823 181.564C168.219 181.685 167.357 181.791 166.238 181.881C165.15 182.002 164.016 182.093 162.837 182.154C161.688 182.214 160.721 182.244 159.935 182.244C157.788 182.244 156.095 181.957 154.856 181.383C153.647 180.838 152.755 179.826 152.18 178.344C152.059 177.891 151.908 177.377 151.727 176.802C151.545 176.228 151.379 175.669 151.228 175.124C151.107 174.55 150.986 174.081 150.865 173.719C150.623 172.902 150.276 172.343 149.822 172.041C149.369 171.708 148.915 171.542 148.462 171.542C147.978 171.542 147.494 171.708 147.01 172.041C146.527 172.343 146.013 172.781 145.469 173.356C145.166 173.658 144.788 174.051 144.335 174.535C143.912 175.019 143.413 175.563 142.838 176.168C142.294 176.772 141.72 177.422 141.115 178.118C140.541 178.813 139.936 179.538 139.301 180.294C138.666 181.05 138.031 181.836 137.397 182.652L132.045 178.888C132.438 178.526 132.907 178.118 133.451 177.664C133.995 177.18 134.57 176.651 135.174 176.077C135.567 175.684 136.127 175.124 136.852 174.399C137.578 173.643 138.409 172.797 139.347 171.859C140.314 170.922 141.312 169.924 142.34 168.866C143.398 167.778 144.456 166.705 145.514 165.647C146.572 164.588 147.555 163.591 148.462 162.654C149.399 161.686 150.215 160.84 150.91 160.114C150.276 160.144 149.565 160.19 148.779 160.25C147.993 160.28 147.177 160.326 146.33 160.386C145.484 160.416 144.652 160.477 143.836 160.568C143.02 160.628 142.264 160.688 141.569 160.749C140.873 160.809 140.254 160.87 139.709 160.93C138.923 160.991 138.198 161.081 137.533 161.202C136.867 161.293 136.293 161.369 135.809 161.429L135.265 155.171C135.779 155.201 136.429 155.247 137.215 155.307C138.001 155.337 138.802 155.337 139.619 155.307C140.042 155.307 140.737 155.292 141.705 155.262C142.702 155.231 143.851 155.186 145.151 155.126C146.451 155.065 147.766 155.005 149.097 154.944C150.457 154.854 151.727 154.763 152.906 154.672C154.115 154.551 155.083 154.445 155.808 154.355C156.231 154.294 156.7 154.219 157.214 154.128C157.758 154.037 158.151 153.947 158.393 153.856L161.704 157.62ZM183.232 145.421C183.867 145.512 184.547 145.572 185.273 145.602C185.998 145.633 186.693 145.648 187.359 145.648C187.842 145.648 188.568 145.648 189.535 145.648C190.503 145.618 191.591 145.587 192.8 145.557C194.04 145.527 195.264 145.497 196.474 145.466C197.683 145.436 198.771 145.406 199.739 145.376C200.736 145.315 201.507 145.27 202.052 145.24C202.989 145.149 203.729 145.073 204.274 145.013C204.818 144.922 205.226 144.831 205.498 144.741L208.446 148.777C207.932 149.109 207.403 149.442 206.859 149.774C206.314 150.107 205.785 150.47 205.271 150.863C204.667 151.286 203.941 151.845 203.095 152.541C202.248 153.206 201.341 153.916 200.374 154.672C199.436 155.428 198.514 156.169 197.607 156.894C196.731 157.62 195.929 158.27 195.204 158.844C195.96 158.663 196.685 158.542 197.381 158.481C198.076 158.391 198.786 158.345 199.512 158.345C202.082 158.345 204.379 158.844 206.405 159.842C208.461 160.84 210.078 162.2 211.257 163.923C212.467 165.616 213.071 167.566 213.071 169.773C213.071 172.162 212.467 174.323 211.257 176.258C210.048 178.193 208.219 179.735 205.77 180.884C203.352 182.033 200.313 182.607 196.655 182.607C194.569 182.607 192.679 182.305 190.986 181.7C189.324 181.095 188.009 180.234 187.041 179.115C186.074 177.997 185.59 176.681 185.59 175.17C185.59 173.93 185.923 172.781 186.588 171.723C187.283 170.635 188.235 169.758 189.445 169.093C190.684 168.428 192.105 168.095 193.707 168.095C195.793 168.095 197.547 168.519 198.968 169.365C200.419 170.181 201.523 171.285 202.278 172.676C203.064 174.066 203.473 175.593 203.503 177.256L198.197 177.981C198.167 176.319 197.743 174.988 196.927 173.991C196.141 172.963 195.083 172.449 193.753 172.449C192.906 172.449 192.226 172.676 191.712 173.129C191.198 173.552 190.941 174.051 190.941 174.626C190.941 175.472 191.364 176.152 192.211 176.666C193.057 177.18 194.161 177.437 195.521 177.437C198.091 177.437 200.238 177.135 201.961 176.53C203.684 175.895 204.969 175.004 205.816 173.855C206.692 172.676 207.131 171.285 207.131 169.683C207.131 168.322 206.707 167.128 205.861 166.1C205.045 165.072 203.926 164.271 202.505 163.697C201.084 163.122 199.482 162.835 197.698 162.835C195.945 162.835 194.342 163.062 192.891 163.515C191.44 163.938 190.064 164.558 188.764 165.374C187.495 166.161 186.24 167.128 185 168.277C183.791 169.395 182.582 170.65 181.373 172.041L177.246 167.778C178.062 167.113 178.984 166.372 180.012 165.556C181.04 164.709 182.083 163.833 183.141 162.926C184.229 162.019 185.242 161.172 186.179 160.386C187.147 159.57 187.963 158.89 188.628 158.345C189.263 157.831 190.004 157.227 190.85 156.531C191.697 155.836 192.574 155.126 193.481 154.4C194.388 153.644 195.249 152.934 196.066 152.269C196.882 151.573 197.562 150.984 198.106 150.5C197.653 150.5 197.063 150.515 196.338 150.545C195.612 150.576 194.811 150.606 193.934 150.636C193.088 150.666 192.226 150.697 191.349 150.727C190.503 150.757 189.702 150.802 188.946 150.863C188.22 150.893 187.616 150.923 187.132 150.954C186.527 150.984 185.892 151.029 185.227 151.09C184.562 151.15 183.957 151.226 183.413 151.316L183.232 145.421ZM242.095 142.609H247.582V175.306C247.582 176.213 247.627 176.893 247.718 177.347C247.839 177.8 248.081 178.102 248.443 178.254C248.836 178.374 249.396 178.435 250.121 178.435C250.393 178.435 250.817 178.435 251.391 178.435C251.996 178.435 252.661 178.435 253.386 178.435C254.112 178.435 254.777 178.435 255.382 178.435C256.017 178.435 256.47 178.435 256.742 178.435C257.498 178.435 258.057 178.223 258.42 177.8C258.813 177.347 259.085 176.545 259.236 175.397C259.418 174.218 259.569 172.57 259.69 170.454C260.355 170.937 261.171 171.406 262.139 171.859C263.106 172.283 263.968 172.585 264.724 172.766C264.512 175.366 264.164 177.452 263.681 179.024C263.197 180.597 262.456 181.73 261.459 182.426C260.461 183.151 259.055 183.514 257.241 183.514C256.999 183.514 256.606 183.514 256.062 183.514C255.548 183.514 254.959 183.514 254.293 183.514C253.659 183.514 253.009 183.514 252.343 183.514C251.709 183.514 251.134 183.514 250.62 183.514C250.106 183.514 249.713 183.514 249.441 183.514C247.536 183.514 246.055 183.272 244.997 182.788C243.939 182.305 243.183 181.458 242.729 180.249C242.306 179.04 242.095 177.377 242.095 175.261V142.609ZM259.055 150.228L263.046 154.99C261.383 156.199 259.569 157.378 257.604 158.527C255.639 159.645 253.628 160.734 251.573 161.792C249.547 162.85 247.552 163.833 245.586 164.74C245.405 164.105 245.088 163.379 244.634 162.563C244.181 161.716 243.773 161.006 243.41 160.431C245.284 159.524 247.159 158.497 249.033 157.348C250.938 156.199 252.752 155.005 254.475 153.765C256.198 152.526 257.725 151.347 259.055 150.228ZM233.297 142.065L238.693 143.834C237.545 146.524 236.184 149.215 234.612 151.906C233.04 154.566 231.347 157.076 229.533 159.434C227.749 161.762 225.905 163.802 224 165.556C223.819 165.102 223.532 164.513 223.139 163.787C222.776 163.062 222.383 162.336 221.96 161.611C221.536 160.855 221.159 160.25 220.826 159.797C222.489 158.406 224.091 156.773 225.633 154.899C227.175 152.994 228.611 150.954 229.941 148.777C231.271 146.57 232.39 144.333 233.297 142.065ZM228.49 154.854L233.886 149.457L233.932 149.548V183.968H228.49V154.854ZM283.906 184.149H268.85V179.251H278.51V155.171H283.906V184.149Z" fill="#333333"/>
<path d="M328.569 144.015C328.448 144.952 328.327 145.965 328.206 147.053C328.115 148.142 328.039 149.139 327.979 150.046C327.949 151.286 327.888 152.798 327.798 154.581C327.737 156.335 327.677 158.179 327.616 160.114C327.586 162.049 327.541 163.953 327.48 165.828C327.45 167.702 327.435 169.335 327.435 170.726C327.435 172.237 327.707 173.446 328.251 174.353C328.826 175.23 329.581 175.865 330.519 176.258C331.456 176.621 332.514 176.802 333.693 176.802C335.567 176.802 337.276 176.56 338.817 176.077C340.359 175.563 341.765 174.882 343.035 174.036C344.305 173.189 345.438 172.207 346.436 171.088C347.464 169.97 348.386 168.791 349.202 167.551L353.329 172.539C352.603 173.628 351.651 174.777 350.472 175.986C349.293 177.195 347.887 178.329 346.255 179.387C344.652 180.445 342.793 181.307 340.677 181.972C338.56 182.637 336.217 182.97 333.648 182.97C331.169 182.97 329.007 182.577 327.163 181.791C325.349 181.035 323.928 179.856 322.9 178.253C321.902 176.621 321.403 174.52 321.403 171.95C321.403 170.71 321.419 169.305 321.449 167.732C321.479 166.13 321.524 164.467 321.585 162.744C321.645 161.021 321.691 159.343 321.721 157.71C321.751 156.048 321.781 154.551 321.812 153.221C321.842 151.891 321.857 150.832 321.857 150.046C321.857 148.958 321.812 147.9 321.721 146.872C321.63 145.814 321.479 144.831 321.267 143.924L328.569 144.015ZM360.754 148.777C361.661 148.746 362.522 148.716 363.339 148.686C364.155 148.626 364.79 148.58 365.243 148.55C366.181 148.459 367.329 148.353 368.69 148.232C370.05 148.112 371.577 147.976 373.27 147.824C374.993 147.673 376.822 147.522 378.757 147.371C380.692 147.189 382.703 147.008 384.789 146.827C386.361 146.706 387.933 146.6 389.505 146.509C391.077 146.388 392.558 146.298 393.949 146.237C395.37 146.146 396.595 146.086 397.622 146.056L397.668 151.86C396.852 151.86 395.914 151.876 394.856 151.906C393.798 151.936 392.74 151.996 391.682 152.087C390.654 152.148 389.732 152.269 388.915 152.45C387.555 152.813 386.285 153.432 385.106 154.309C383.957 155.156 382.945 156.169 382.068 157.348C381.191 158.527 380.511 159.796 380.027 161.157C379.574 162.487 379.347 163.832 379.347 165.193C379.347 166.674 379.604 167.989 380.118 169.138C380.632 170.257 381.342 171.224 382.249 172.041C383.186 172.827 384.275 173.492 385.514 174.036C386.754 174.55 388.084 174.943 389.505 175.215C390.956 175.487 392.453 175.669 393.995 175.759L391.863 181.972C389.958 181.851 388.099 181.549 386.285 181.065C384.502 180.581 382.824 179.916 381.252 179.07C379.71 178.223 378.349 177.195 377.17 175.986C375.991 174.746 375.069 173.341 374.404 171.769C373.739 170.166 373.406 168.382 373.406 166.417C373.406 164.21 373.754 162.2 374.449 160.386C375.145 158.572 376.006 156.985 377.034 155.624C378.062 154.234 379.09 153.16 380.118 152.405C379.271 152.495 378.243 152.616 377.034 152.767C375.855 152.888 374.57 153.039 373.179 153.221C371.819 153.372 370.428 153.538 369.007 153.72C367.586 153.901 366.211 154.113 364.881 154.355C363.581 154.566 362.402 154.778 361.343 154.989L360.754 148.777ZM414.356 145.648C414.991 145.708 415.656 145.769 416.352 145.829C417.077 145.859 417.682 145.874 418.165 145.874C418.831 145.874 419.586 145.859 420.433 145.829C421.31 145.799 422.202 145.769 423.108 145.738C424.015 145.708 424.877 145.663 425.693 145.602C426.51 145.542 427.175 145.496 427.689 145.466C428.233 145.436 428.777 145.36 429.321 145.239C429.896 145.119 430.379 144.982 430.772 144.831L434.4 147.643C434.098 148.006 433.811 148.338 433.539 148.641C433.267 148.913 433.04 149.215 432.858 149.548C432.345 150.394 431.755 151.558 431.09 153.039C430.425 154.491 429.714 156.063 428.958 157.756C428.233 159.449 427.522 161.096 426.827 162.699C426.374 163.727 425.905 164.815 425.421 165.964C424.938 167.113 424.439 168.262 423.925 169.41C423.411 170.529 422.912 171.587 422.428 172.585C421.945 173.552 421.476 174.399 421.022 175.124C420.115 176.485 419.103 177.498 417.984 178.163C416.865 178.798 415.52 179.115 413.948 179.115C411.953 179.115 410.29 178.465 408.96 177.165C407.629 175.865 406.964 174.066 406.964 171.769C406.964 169.955 407.372 168.262 408.189 166.689C409.005 165.117 410.154 163.757 411.635 162.608C413.147 161.429 414.915 160.522 416.941 159.887C418.967 159.252 421.189 158.935 423.607 158.935C426.238 158.935 428.777 159.237 431.226 159.842C433.675 160.446 435.957 161.217 438.074 162.155C440.22 163.092 442.14 164.074 443.833 165.102C445.556 166.1 447.022 167.007 448.232 167.823L445.556 174.127C444.196 172.857 442.669 171.632 440.976 170.453C439.283 169.274 437.469 168.201 435.534 167.234C433.629 166.236 431.589 165.45 429.412 164.876C427.265 164.301 425.028 164.014 422.7 164.014C420.493 164.014 418.604 164.362 417.032 165.057C415.49 165.752 414.311 166.629 413.495 167.687C412.678 168.715 412.27 169.788 412.27 170.907C412.27 171.632 412.452 172.192 412.814 172.585C413.207 172.978 413.661 173.174 414.175 173.174C414.658 173.174 415.067 173.053 415.399 172.812C415.732 172.57 416.11 172.162 416.533 171.587C416.926 171.043 417.304 170.393 417.667 169.637C418.06 168.881 418.453 168.05 418.846 167.143C419.269 166.236 419.677 165.314 420.07 164.377C420.493 163.439 420.902 162.532 421.295 161.656C421.839 160.446 422.398 159.192 422.972 157.892C423.547 156.562 424.091 155.277 424.605 154.037C425.149 152.798 425.648 151.709 426.102 150.772C425.648 150.802 425.089 150.832 424.424 150.863C423.758 150.863 423.048 150.878 422.292 150.908C421.567 150.938 420.841 150.984 420.115 151.044C419.42 151.074 418.815 151.105 418.302 151.135C417.848 151.165 417.258 151.21 416.533 151.271C415.838 151.331 415.203 151.407 414.628 151.498L414.356 145.648ZM444.241 156.395C444.06 159.6 443.727 162.548 443.243 165.238C442.79 167.899 442.049 170.332 441.021 172.539C440.024 174.716 438.648 176.696 436.895 178.48C435.141 180.234 432.904 181.821 430.183 183.242L425.376 179.296C428.157 178.087 430.379 176.696 432.042 175.124C433.735 173.552 435.005 171.905 435.852 170.181C436.728 168.458 437.333 166.78 437.665 165.148C437.998 163.485 438.21 161.988 438.3 160.658C438.361 159.781 438.391 158.92 438.391 158.073C438.391 157.196 438.361 156.41 438.3 155.715L444.241 156.395ZM478.933 143.289C478.872 143.743 478.812 144.257 478.752 144.831C478.721 145.376 478.691 145.935 478.661 146.509C478.631 147.114 478.6 147.93 478.57 148.958C478.54 149.956 478.525 151.059 478.525 152.269C478.525 153.478 478.525 154.672 478.525 155.851C478.525 157.03 478.525 158.103 478.525 159.071C478.525 160.341 478.555 161.762 478.615 163.334C478.676 164.876 478.752 166.448 478.842 168.05C478.963 169.622 479.054 171.103 479.114 172.494C479.205 173.855 479.25 174.988 479.25 175.895C479.25 177.165 478.918 178.329 478.253 179.387C477.588 180.415 476.59 181.231 475.26 181.836C473.96 182.441 472.312 182.743 470.317 182.743C466.689 182.743 463.938 182.078 462.063 180.748C460.189 179.417 459.252 177.558 459.252 175.17C459.252 173.628 459.69 172.282 460.567 171.134C461.474 169.955 462.758 169.032 464.421 168.367C466.114 167.702 468.125 167.37 470.453 167.37C472.932 167.37 475.245 167.642 477.391 168.186C479.568 168.7 481.548 169.38 483.332 170.227C485.115 171.073 486.703 171.965 488.093 172.902C489.484 173.839 490.663 174.686 491.631 175.442L488.365 180.521C487.277 179.493 486.053 178.48 484.692 177.482C483.362 176.485 481.896 175.578 480.293 174.762C478.721 173.945 477.043 173.295 475.26 172.812C473.506 172.298 471.647 172.041 469.682 172.041C468.11 172.041 466.885 172.313 466.008 172.857C465.162 173.401 464.739 174.066 464.739 174.852C464.739 175.427 464.92 175.926 465.283 176.349C465.646 176.772 466.175 177.089 466.87 177.301C467.565 177.513 468.442 177.619 469.5 177.619C470.317 177.619 471.012 177.528 471.586 177.346C472.191 177.165 472.66 176.832 472.992 176.349C473.325 175.865 473.491 175.185 473.491 174.308C473.491 173.643 473.461 172.691 473.4 171.451C473.37 170.212 473.325 168.851 473.264 167.37C473.204 165.858 473.143 164.377 473.083 162.926C473.022 161.474 472.992 160.189 472.992 159.071C472.992 157.982 472.992 156.849 472.992 155.67C473.022 154.46 473.038 153.266 473.038 152.087C473.038 150.908 473.038 149.835 473.038 148.867C473.068 147.87 473.083 147.053 473.083 146.419C473.083 145.995 473.053 145.481 472.992 144.877C472.962 144.242 472.902 143.713 472.811 143.289H478.933ZM460.113 147.552C460.929 147.673 461.836 147.794 462.834 147.915C463.832 148.036 464.845 148.157 465.872 148.278C466.931 148.369 467.928 148.444 468.865 148.505C469.803 148.535 470.619 148.55 471.314 148.55C474.398 148.55 477.467 148.459 480.52 148.278C483.604 148.066 486.793 147.688 490.089 147.144L490.043 152.359C488.502 152.571 486.718 152.767 484.692 152.949C482.667 153.13 480.505 153.281 478.207 153.402C475.94 153.493 473.657 153.538 471.36 153.538C470.422 153.538 469.258 153.508 467.868 153.448C466.507 153.357 465.147 153.251 463.786 153.13C462.426 152.979 461.247 152.843 460.249 152.722L460.113 147.552ZM459.886 157.348C460.612 157.469 461.474 157.589 462.471 157.71C463.469 157.831 464.482 157.922 465.51 157.982C466.568 158.043 467.565 158.103 468.503 158.164C469.44 158.194 470.211 158.209 470.815 158.209C473.627 158.209 476.167 158.149 478.434 158.028C480.732 157.907 482.878 157.756 484.874 157.574C486.869 157.393 488.789 157.181 490.633 156.939L490.588 162.291C489.015 162.472 487.489 162.623 486.007 162.744C484.556 162.865 483.06 162.971 481.518 163.062C480.006 163.152 478.374 163.213 476.62 163.243C474.867 163.273 472.902 163.288 470.725 163.288C469.848 163.288 468.76 163.273 467.46 163.243C466.16 163.182 464.829 163.107 463.469 163.016C462.139 162.926 460.96 162.82 459.932 162.699L459.886 157.348ZM532.341 144.378C532.311 144.62 532.281 144.982 532.251 145.466C532.221 145.92 532.19 146.403 532.16 146.917C532.13 147.431 532.1 147.9 532.069 148.323C532.069 149.321 532.054 150.288 532.024 151.226C532.024 152.163 532.009 153.055 531.979 153.901C531.979 154.717 531.964 155.519 531.933 156.305C531.903 157.635 531.858 159.026 531.797 160.477C531.737 161.928 531.661 163.273 531.571 164.513C531.48 165.752 531.359 166.765 531.208 167.551C530.966 168.73 530.543 169.531 529.938 169.955C529.333 170.348 528.441 170.544 527.262 170.544C526.748 170.544 526.038 170.514 525.131 170.453C524.254 170.363 523.377 170.257 522.501 170.136C521.654 170.015 520.959 169.924 520.415 169.864L520.551 164.83C521.246 164.981 522.002 165.117 522.818 165.238C523.665 165.359 524.3 165.42 524.723 165.42C525.176 165.42 525.509 165.359 525.721 165.238C525.962 165.087 526.098 164.8 526.129 164.377C526.219 163.802 526.28 163.077 526.31 162.2C526.371 161.323 526.416 160.371 526.446 159.343C526.507 158.285 526.552 157.257 526.582 156.259C526.582 155.443 526.582 154.627 526.582 153.81C526.582 152.964 526.582 152.102 526.582 151.226C526.582 150.319 526.582 149.427 526.582 148.55C526.582 148.157 526.552 147.703 526.491 147.189C526.461 146.645 526.431 146.116 526.401 145.602C526.371 145.088 526.325 144.68 526.265 144.378H532.341ZM514.519 145.738C514.398 146.494 514.323 147.235 514.293 147.96C514.262 148.656 514.247 149.487 514.247 150.455C514.247 151.271 514.232 152.359 514.202 153.72C514.202 155.08 514.187 156.562 514.157 158.164C514.157 159.736 514.141 161.323 514.111 162.926C514.111 164.498 514.111 165.934 514.111 167.234C514.111 168.534 514.126 169.562 514.157 170.317C514.187 171.436 514.262 172.358 514.383 173.084C514.534 173.779 514.837 174.323 515.29 174.716C515.744 175.109 516.454 175.381 517.422 175.532C518.419 175.684 519.765 175.759 521.458 175.759C522.939 175.759 524.511 175.714 526.174 175.623C527.837 175.502 529.439 175.351 530.981 175.17C532.523 174.988 533.868 174.807 535.017 174.626L534.79 180.793C533.793 180.914 532.553 181.02 531.072 181.11C529.59 181.231 528.048 181.322 526.446 181.382C524.844 181.473 523.317 181.519 521.866 181.519C518.933 181.519 516.59 181.352 514.837 181.02C513.083 180.687 511.753 180.128 510.846 179.342C509.939 178.556 509.334 177.498 509.032 176.167C508.73 174.837 508.548 173.189 508.488 171.224C508.488 170.559 508.473 169.667 508.443 168.549C508.443 167.43 508.443 166.191 508.443 164.83C508.443 163.439 508.443 162.019 508.443 160.567C508.443 159.116 508.443 157.741 508.443 156.441C508.473 155.11 508.488 153.946 508.488 152.949C508.488 151.951 508.488 151.226 508.488 150.772C508.488 149.835 508.458 148.958 508.397 148.142C508.337 147.326 508.246 146.524 508.125 145.738H514.519ZM499.327 155.987C499.993 155.987 500.824 155.957 501.822 155.896C502.819 155.836 503.893 155.76 505.041 155.67C505.948 155.579 507.294 155.458 509.077 155.307C510.861 155.126 512.887 154.929 515.154 154.717C517.422 154.506 519.78 154.294 522.229 154.082C524.708 153.841 527.081 153.629 529.348 153.448C531.616 153.266 533.626 153.115 535.38 152.994C536.015 152.934 536.725 152.888 537.511 152.858C538.327 152.798 539.068 152.737 539.733 152.677V158.255C539.491 158.224 539.098 158.209 538.554 158.209C538.01 158.209 537.436 158.224 536.831 158.255C536.257 158.255 535.773 158.27 535.38 158.3C534.201 158.33 532.765 158.406 531.072 158.527C529.379 158.617 527.565 158.753 525.63 158.935C523.695 159.086 521.715 159.267 519.689 159.479C517.694 159.66 515.774 159.857 513.93 160.069C512.086 160.28 510.423 160.462 508.941 160.613C507.46 160.764 506.281 160.885 505.404 160.976C504.921 161.036 504.331 161.127 503.636 161.248C502.94 161.338 502.245 161.444 501.55 161.565C500.884 161.656 500.355 161.731 499.962 161.792L499.327 155.987ZM570.979 146.282C570.767 146.585 570.525 146.932 570.253 147.326C570.011 147.688 569.769 148.051 569.527 148.414C568.983 149.23 568.379 150.182 567.714 151.271C567.079 152.329 566.414 153.463 565.718 154.672C565.023 155.851 564.343 157.03 563.677 158.209C563.043 159.388 562.438 160.477 561.864 161.474C562.71 160.991 563.572 160.643 564.448 160.431C565.325 160.22 566.202 160.114 567.079 160.114C568.772 160.114 570.102 160.628 571.069 161.656C572.067 162.653 572.611 164.105 572.702 166.009C572.732 166.674 572.747 167.476 572.747 168.413C572.747 169.35 572.747 170.287 572.747 171.224C572.777 172.162 572.823 172.948 572.883 173.582C572.974 174.459 573.291 175.094 573.836 175.487C574.41 175.85 575.075 176.031 575.831 176.031C576.798 176.031 577.675 175.744 578.461 175.17C579.277 174.595 580.003 173.809 580.638 172.812C581.273 171.784 581.817 170.635 582.271 169.365C582.754 168.065 583.162 166.72 583.495 165.329L588.393 169.32C587.607 171.889 586.609 174.157 585.4 176.122C584.19 178.057 582.709 179.553 580.955 180.612C579.232 181.7 577.207 182.244 574.879 182.244C573.216 182.244 571.825 181.942 570.707 181.337C569.588 180.763 568.757 180.007 568.212 179.07C567.668 178.102 567.366 177.059 567.305 175.941C567.245 175.124 567.2 174.217 567.169 173.22C567.169 172.222 567.154 171.255 567.124 170.317C567.124 169.35 567.094 168.564 567.033 167.959C566.973 167.173 566.716 166.553 566.262 166.1C565.809 165.646 565.174 165.42 564.358 165.42C563.36 165.42 562.408 165.737 561.501 166.372C560.594 167.007 559.762 167.838 559.007 168.866C558.281 169.894 557.646 171.028 557.102 172.267C556.8 172.932 556.482 173.719 556.15 174.626C555.817 175.532 555.5 176.47 555.197 177.437C554.895 178.405 554.608 179.312 554.336 180.158C554.064 181.035 553.837 181.776 553.655 182.38L547.261 180.203C547.836 178.692 548.531 176.969 549.347 175.034C550.194 173.069 551.116 171.013 552.114 168.866C553.111 166.72 554.124 164.588 555.152 162.472C556.18 160.356 557.162 158.36 558.1 156.486C559.037 154.581 559.868 152.934 560.594 151.543C561.35 150.122 561.924 149.049 562.317 148.323C562.619 147.719 562.967 147.038 563.36 146.282C563.753 145.527 564.146 144.665 564.539 143.698L570.979 146.282ZM612.926 144.151C612.775 144.726 612.624 145.36 612.473 146.056C612.352 146.721 612.231 147.341 612.11 147.915C611.989 148.58 611.838 149.336 611.657 150.182C611.475 150.999 611.294 151.83 611.112 152.677C610.961 153.493 610.795 154.294 610.614 155.08C610.311 156.38 609.933 157.892 609.48 159.615C609.026 161.338 608.497 163.198 607.893 165.193C607.288 167.158 606.608 169.138 605.852 171.134C605.096 173.129 604.295 175.079 603.448 176.984C602.602 178.858 601.695 180.551 600.727 182.063L594.832 179.705C595.89 178.284 596.873 176.696 597.78 174.943C598.717 173.159 599.564 171.33 600.319 169.456C601.075 167.581 601.74 165.737 602.315 163.923C602.919 162.109 603.433 160.416 603.857 158.844C604.28 157.272 604.612 155.927 604.854 154.808C605.277 152.752 605.61 150.772 605.852 148.867C606.094 146.963 606.2 145.164 606.169 143.471L612.926 144.151ZM628.526 148.414C629.252 149.381 629.993 150.606 630.748 152.087C631.534 153.538 632.29 155.08 633.016 156.713C633.772 158.345 634.452 159.917 635.057 161.429C635.691 162.941 636.175 164.226 636.508 165.284L630.748 167.959C630.446 166.689 630.023 165.284 629.479 163.742C628.965 162.17 628.36 160.582 627.665 158.98C627 157.348 626.274 155.806 625.488 154.355C624.732 152.903 623.946 151.694 623.13 150.727L628.526 148.414ZM594.515 153.448C595.331 153.508 596.132 153.538 596.918 153.538C597.704 153.508 598.521 153.478 599.367 153.448C600.093 153.417 600.984 153.372 602.043 153.312C603.131 153.221 604.265 153.13 605.444 153.039C606.653 152.949 607.862 152.858 609.072 152.767C610.281 152.646 611.4 152.556 612.427 152.495C613.455 152.435 614.302 152.405 614.967 152.405C616.569 152.405 617.975 152.677 619.184 153.221C620.424 153.735 621.391 154.627 622.087 155.896C622.812 157.166 623.175 158.889 623.175 161.066C623.175 162.85 623.084 164.785 622.903 166.871C622.752 168.957 622.495 170.952 622.132 172.857C621.769 174.762 621.255 176.379 620.59 177.709C619.865 179.281 618.867 180.37 617.597 180.974C616.358 181.579 614.876 181.881 613.153 181.881C612.276 181.881 611.339 181.806 610.341 181.655C609.374 181.534 608.497 181.398 607.711 181.246L606.714 175.26C607.318 175.412 607.968 175.563 608.664 175.714C609.389 175.865 610.069 175.986 610.704 176.077C611.369 176.167 611.898 176.213 612.291 176.213C613.047 176.213 613.712 176.077 614.287 175.805C614.861 175.502 615.33 174.988 615.693 174.263C616.116 173.386 616.448 172.252 616.69 170.862C616.962 169.471 617.159 167.974 617.28 166.372C617.431 164.739 617.507 163.182 617.507 161.701C617.507 160.492 617.34 159.6 617.008 159.026C616.675 158.451 616.176 158.073 615.511 157.892C614.876 157.68 614.075 157.574 613.108 157.574C612.443 157.574 611.505 157.635 610.296 157.756C609.117 157.846 607.862 157.967 606.532 158.119C605.202 158.239 603.947 158.376 602.768 158.527C601.619 158.678 600.727 158.784 600.093 158.844C599.458 158.965 598.626 159.101 597.598 159.252C596.601 159.373 595.754 159.494 595.059 159.615L594.515 153.448ZM658.366 168.322C658.215 167.113 658.305 166.055 658.638 165.148C659.001 164.241 659.5 163.424 660.134 162.699C660.8 161.973 661.525 161.308 662.311 160.703C663.128 160.099 663.883 159.509 664.579 158.935C665.304 158.36 665.894 157.771 666.347 157.166C666.801 156.562 667.028 155.896 667.028 155.171C667.028 154.264 666.801 153.493 666.347 152.858C665.894 152.223 665.229 151.739 664.352 151.407C663.505 151.074 662.478 150.908 661.268 150.908C659.878 150.908 658.608 151.21 657.459 151.815C656.31 152.42 655.176 153.312 654.058 154.491L650.339 151.044C651.79 149.381 653.498 148.051 655.464 147.053C657.459 146.026 659.651 145.512 662.039 145.512C664.246 145.512 666.196 145.844 667.889 146.509C669.612 147.174 670.958 148.187 671.925 149.548C672.923 150.878 673.422 152.556 673.422 154.581C673.422 155.7 673.18 156.682 672.696 157.529C672.243 158.345 671.638 159.086 670.882 159.751C670.157 160.386 669.386 161.006 668.569 161.61C667.753 162.185 666.997 162.789 666.302 163.424C665.607 164.059 665.062 164.77 664.669 165.556C664.276 166.342 664.125 167.264 664.216 168.322H658.366ZM661.314 180.385C660.165 180.385 659.212 180.007 658.457 179.251C657.701 178.495 657.323 177.543 657.323 176.394C657.323 175.215 657.701 174.248 658.457 173.492C659.212 172.736 660.165 172.358 661.314 172.358C662.462 172.358 663.415 172.736 664.171 173.492C664.926 174.248 665.304 175.215 665.304 176.394C665.304 177.543 664.926 178.495 664.171 179.251C663.415 180.007 662.462 180.385 661.314 180.385Z" fill="#333333"/>
</g>
<defs>
<clipPath id="clip0_378_3330">
<rect width="750" height="252.977" fill="white"/>
</clipPath>
</defs>
</svg>
